<svg width="24" height="24" viewBox="0 0 24 24" fill="none" xmlns="http://www.w3.org/2000/svg">
<path d="M6.93226 5.51804C6.97644 5.35282 7 5.17916 7 5C7 3.89543 6.10457 3 5 3C3.89543 3 3 3.89543 3 5C3 6.10457 3.89543 7 5 7C5.17916 7 5.35282 6.97644 5.51804 6.93226L6.39362 7.80783C5.5184 8.97641 5 10.4277 5 12C5 13.5723 5.5184 15.0236 6.39362 16.1922L5.51804 17.0677C5.35282 17.0236 5.17916 17 5 17C3.89543 17 3 17.8954 3 19C3 20.1046 3.89543 21 5 21C6.10457 21 7 20.1046 7 19C7 18.8208 6.97644 18.6472 6.93226 18.482L7.80783 17.6064C8.97641 18.4816 10.4277 19 12 19C13.599 19 15.0729 18.4638 16.2515 17.5615L19.8356 20.7474L21.1644 19.2526L17.652 16.1305C18.4996 14.9727 19 13.5448 19 12C19 10.4277 18.4816 8.97641 17.6064 7.80783L18.482 6.93226C18.6472 6.97644 18.8208 7 19 7C20.1046 7 21 6.10457 21 5C21 3.89543 20.1046 3 19 3C17.8954 3 17 3.89543 17 5C17 5.17916 17.0236 5.35282 17.0677 5.51804L16.1922 6.39362C15.0236 5.5184 13.5723 5 12 5C10.4277 5 8.97641 5.5184 7.80783 6.39362L6.93226 5.51804ZM7 12C7 10.9809 7.30488 10.033 7.8284 9.24261L9.29237 10.7066C9.10495 11.0982 9 11.5369 9 12C9 12.4631 9.10495 12.9018 9.29237 13.2934L7.8284 14.7574C7.30488 13.967 7 13.0191 7 12ZM12 17C10.9809 17 10.033 16.6951 9.24261 16.1716L10.7066 14.7076C11.0982 14.895 11.5369 15 12 15C13.6569 15 15 13.6569 15 12C15 11.5369 14.895 11.0982 14.7076 10.7066L16.1716 9.24261C16.6951 10.033 17 10.9809 17 12C17 14.7614 14.7614 17 12 17ZM12 7C13.0191 7 13.967 7.30488 14.7574 7.8284L13.2934 9.29237C12.9018 9.10495 12.4631 9 12 9C11.5369 9 11.0982 9.10495 10.7066 9.29237L9.24261 7.8284C10.033 7.30488 10.9809 7 12 7Z" fill="#71717A"/>
</svg>
