<svg width="24" height="24" viewBox="0 0 24 24" fill="none" xmlns="http://www.w3.org/2000/svg">
<path d="M12 22C12.4427 22 12.8786 21.9712 13.3061 21.9155L13.0474 19.9323C12.7055 19.9769 12.3559 20 12 20C11.6441 20 11.2945 19.9769 10.9526 19.9323L10.6939 21.9155C11.1214 21.9712 11.5573 22 12 22Z" fill="#71717A"/>
<path d="M8.93823 19.3937L8.17212 21.2412C7.35915 20.9041 6.60028 20.4628 5.91216 19.934L7.13081 18.3482C7.68194 18.7717 8.28894 19.1245 8.93823 19.3937Z" fill="#71717A"/>
<path d="M5.65184 16.8692L4.06601 18.0878C3.53721 17.3997 3.09593 16.6409 2.7588 15.8279L4.60626 15.0618C4.87551 15.7111 5.22833 16.3181 5.65184 16.8692Z" fill="#71717A"/>
<path d="M4.06772 13.0474L2.08452 13.3061C2.02876 12.8786 2 12.4427 2 12C2 11.5573 2.02876 11.1214 2.08452 10.6939L4.06772 10.9526C4.02312 11.2945 4 11.6441 4 12C4 12.3559 4.02312 12.7055 4.06772 13.0474Z" fill="#71717A"/>
<path d="M4.60626 8.93823L2.75881 8.17212C3.09593 7.35915 3.53722 6.60028 4.06601 5.91216L5.65184 7.13081C5.22833 7.68194 4.87551 8.28894 4.60626 8.93823Z" fill="#71717A"/>
<path d="M7.13081 5.65184L5.91216 4.06601C6.60028 3.53721 7.35915 3.09593 8.17212 2.7588L8.93823 4.60626C8.28894 4.87551 7.68194 5.22833 7.13081 5.65184Z" fill="#71717A"/>
<path d="M12 2C11.5573 2 11.1214 2.02876 10.6939 2.08452L10.9526 4.06772C11.2945 4.02312 11.6441 4 12 4C12.3559 4 12.7055 4.02312 13.0474 4.06772L13.3061 2.08452C12.8786 2.02876 12.4427 2 12 2Z" fill="#71717A"/>
<path d="M15.0618 4.60626L15.8279 2.75881C16.6409 3.09593 17.3997 3.53722 18.0878 4.06601L16.8692 5.65184C16.3181 5.22833 15.7111 4.87551 15.0618 4.60626Z" fill="#71717A"/>
<path d="M18.3482 7.13081L19.934 5.91216C20.4628 6.60028 20.9041 7.35915 21.2412 8.17212L19.3937 8.93823C19.1245 8.28894 18.7717 7.68194 18.3482 7.13081Z" fill="#71717A"/>
<path d="M19.9323 10.9526L21.9155 10.6939C21.9712 11.1214 22 11.5573 22 12C22 12.4427 21.9712 12.8786 21.9155 13.3061L19.9323 13.0474C19.9769 12.7055 20 12.3559 20 12C20 11.6441 19.9769 11.2945 19.9323 10.9526Z" fill="#71717A"/>
<path d="M19.3937 15.0618L21.2412 15.8279C20.9041 16.6409 20.4628 17.3997 19.934 18.0878L18.3482 16.8692C18.7717 16.3181 19.1245 15.7111 19.3937 15.0618Z" fill="#71717A"/>
<path d="M16.8692 18.3482L18.0878 19.934C17.3997 20.4628 16.6409 20.9041 15.8279 21.2412L15.0618 19.3937C15.7111 19.1245 16.3181 18.7717 16.8692 18.3482Z" fill="#71717A"/>
<path d="M13.0607 5.98963C13.4728 6.40175 13.595 6.99402 13.4272 7.51295L16.4871 10.5728C17.006 10.405 17.5983 10.5272 18.0104 10.9393C18.5962 11.5251 18.5962 12.4749 18.0104 13.0607C17.5983 13.4728 17.006 13.595 16.487 13.4272L13.4272 16.487C13.595 17.0059 13.4728 17.5982 13.0607 18.0104C12.4749 18.5962 11.5251 18.5962 10.9393 18.0104C10.5272 17.5982 10.405 17.0059 10.5728 16.487L7.51299 13.4272C6.99404 13.595 6.40173 13.4728 5.98958 13.0607C5.4038 12.4749 5.4038 11.5251 5.98958 10.9393C6.40172 10.5272 6.994 10.405 7.51295 10.5728L10.5728 7.51296C10.405 6.99402 10.5272 6.40176 10.9393 5.98963C11.5251 5.40385 12.4749 5.40385 13.0607 5.98963ZM12 8.91418L8.91422 12L12 15.0858L15.0858 12L12 8.91418Z" fill="#71717A"/>
</svg>
