<svg width="24" height="24" viewBox="0 0 24 24" fill="none" xmlns="http://www.w3.org/2000/svg">
<path d="M20 12.296V19.704C20 19.7825 19.9688 19.8578 19.9133 19.9133C19.8578 19.9688 19.7825 20 19.704 20H4.296C4.2175 20 4.14221 19.9688 4.0867 19.9133C4.03119 19.8578 4 19.7825 4 19.704V4.296C4 4.2175 4.03119 4.14221 4.0867 4.0867C4.14221 4.03119 4.2175 4 4.296 4H11.704C11.7825 4 11.8578 3.96881 11.9133 3.9133C11.9688 3.85779 12 3.7825 12 3.704V2.296C12 2.2175 11.9688 2.14221 11.9133 2.0867C11.8578 2.03119 11.7825 2 11.704 2H2.296C2.2175 2 2.14221 2.03119 2.0867 2.0867C2.03119 2.14221 2 2.2175 2 2.296V21.704C2 21.7825 2.03119 21.8578 2.0867 21.9133C2.14221 21.9688 2.2175 22 2.296 22H21.704C21.7825 22 21.8578 21.9688 21.9133 21.9133C21.9688 21.8578 22 21.7825 22 21.704V12.296C22 12.2571 21.9923 12.2186 21.9775 12.1827C21.9626 12.1468 21.9408 12.1142 21.9133 12.0867C21.8858 12.0592 21.8532 12.0374 21.8173 12.0225C21.7814 12.0077 21.7429 12 21.704 12H20.296C20.133 12 20 12.133 20 12.296Z" fill="#71717A"/>
<path d="M11.4437 11.482L12.4397 12.478C12.4671 12.5056 12.4997 12.5275 12.5355 12.5424C12.5714 12.5573 12.6099 12.565 12.6487 12.565C12.6876 12.565 12.726 12.5573 12.7619 12.5424C12.7978 12.5275 12.8303 12.5056 12.8577 12.478L19.3787 5.957C19.5647 5.771 19.8837 5.903 19.8837 6.166V9.033C19.8837 9.1115 19.9149 9.18679 19.9704 9.2423C20.0259 9.29781 20.1012 9.329 20.1797 9.329H21.5877C21.6662 9.329 21.7415 9.29781 21.797 9.2423C21.8525 9.18679 21.8837 9.1115 21.8837 9.033V2.296C21.8837 2.2175 21.8525 2.14221 21.797 2.0867C21.7415 2.03119 21.6662 2 21.5877 2H14.7557C14.6772 2 14.6019 2.03119 14.5464 2.0867C14.4909 2.14221 14.4597 2.2175 14.4597 2.296V3.704C14.4597 3.7825 14.4909 3.85779 14.5464 3.9133C14.6019 3.96881 14.6772 4 14.7557 4H17.7917C18.0557 4 18.1877 4.319 18.0007 4.505L11.4437 11.063C11.3885 11.1187 11.3575 11.194 11.3575 11.2725C11.3575 11.351 11.3885 11.4263 11.4437 11.482Z" fill="#71717A"/>
</svg>
