<svg width="24" height="24" viewBox="0 0 24 24" fill="none" xmlns="http://www.w3.org/2000/svg">
<path d="M16.5463 13C17.2963 13 17.9563 12.59 18.2963 11.97L21.8763 5.48C22.2463 4.82 21.7663 4 21.0063 4H6.20629L5.26629 2H1.99629V4H3.99629L7.59629 11.59L6.24629 14.03C5.51629 15.37 6.47629 17 7.99629 17H19.9963V15H7.99629L9.09629 13H16.5463ZM7.15629 6H19.3063L16.5463 11H9.52629L7.15629 6ZM7.99629 18C6.89629 18 6.00629 18.9 6.00629 20C6.00629 21.1 6.89629 22 7.99629 22C9.09629 22 9.99629 21.1 9.99629 20C9.99629 18.9 9.09629 18 7.99629 18ZM17.9963 18C16.8963 18 16.0063 18.9 16.0063 20C16.0063 21.1 16.8963 22 17.9963 22C19.0963 22 19.9963 21.1 19.9963 20C19.9963 18.9 19.0963 18 17.9963 18Z" fill="#71717A"/>
</svg>
