<svg width="26" height="24" viewBox="0 0 26 24" fill="none" xmlns="http://www.w3.org/2000/svg">
<path d="M21.6667 2H18V0H21.6667C22.7712 0 23.6667 0.895431 23.6667 2V3H25.0446L22.6667 6.05739L20.2887 3H21.6667V2Z" fill="#71717A"/>
<path d="M13 4.50001C10.6246 4.49772 8.30385 5.21238 6.34125 6.55052C4.37865 7.88865 2.86559 9.78796 1.99999 12C2.86559 14.212 4.37865 16.1114 6.34125 17.4495C8.30385 18.7876 10.6246 19.5023 13 19.5H14.1C14.0225 19.1726 13.9889 18.8363 14 18.5C14.0175 17.9286 14.0844 17.3598 14.2 16.8L13 17C12.0111 17 11.0444 16.7068 10.2221 16.1574C9.3999 15.6079 8.75903 14.8271 8.3806 13.9134C8.00216 12.9998 7.90314 11.9945 8.09607 11.0246C8.28899 10.0546 8.7652 9.16373 9.46446 8.46447C10.1637 7.76521 11.0546 7.28901 12.0245 7.09608C12.9944 6.90315 13.9998 7.00217 14.9134 7.38061C15.827 7.75905 16.6079 8.39991 17.1573 9.22215C17.7067 10.0444 18 11.0111 18 12C18.0157 12.3034 17.9819 12.6074 17.9 12.9C18.5647 12.6227 19.2798 12.4865 20 12.5C21.1778 12.478 22.3326 12.8279 23.3 13.5C23.574 13.02 23.8081 12.5183 24 12C23.1344 9.78796 21.6213 7.88865 19.6587 6.55052C17.6961 5.21238 15.3754 4.49772 13 4.50001Z" fill="#71717A"/>
<path d="M13 9.00001C12.4066 9.00001 11.8266 9.17595 11.3333 9.5056C10.8399 9.83524 10.4554 10.3038 10.2284 10.852C10.0013 11.4001 9.94188 12.0033 10.0576 12.5853C10.1734 13.1672 10.4591 13.7018 10.8787 14.1213C11.2982 14.5409 11.8328 14.8266 12.4147 14.9424C12.9967 15.0581 13.5999 14.9987 14.148 14.7716C14.6962 14.5446 15.1648 14.1601 15.4944 13.6667C15.824 13.1734 16 12.5933 16 12C16.014 11.6023 15.9459 11.2059 15.8001 10.8356C15.6543 10.4653 15.4338 10.129 15.1524 9.84761C14.871 9.5662 14.5347 9.34572 14.1644 9.1999C13.7941 9.05408 13.3977 8.98604 13 9.00001Z" fill="#71717A"/>
<path d="M7.99999 22H4.33333L4.33333 21H5.7113L3.33333 17.9426L0.955353 21H2.33333V22C2.33333 23.1046 3.22876 24 4.33333 24H7.99999V22Z" fill="#71717A"/>
<path d="M16 17.5V19.5H24V17.5H16Z" fill="#71717A"/>
</svg>
