<svg width="24" height="24" viewBox="0 0 24 24" fill="none" xmlns="http://www.w3.org/2000/svg">
<path d="M8 10.5C8 11.3284 7.32843 12 6.5 12C5.67157 12 5 11.3284 5 10.5C5 9.67157 5.67157 9 6.5 9C7.32843 9 8 9.67157 8 10.5Z" fill="#71717A"/>
<path d="M9.5 8C10.3284 8 11 7.32843 11 6.5C11 5.67157 10.3284 5 9.5 5C8.67157 5 8 5.67157 8 6.5C8 7.32843 8.67157 8 9.5 8Z" fill="#71717A"/>
<path d="M16 6.5C16 7.32843 15.3284 8 14.5 8C13.6716 8 13 7.32843 13 6.5C13 5.67157 13.6716 5 14.5 5C15.3284 5 16 5.67157 16 6.5Z" fill="#71717A"/>
<path d="M17.5 12C18.3284 12 19 11.3284 19 10.5C19 9.67157 18.3284 9 17.5 9C16.6716 9 16 9.67157 16 10.5C16 11.3284 16.6716 12 17.5 12Z" fill="#71717A"/>
<path fill-rule="evenodd" clip-rule="evenodd" d="M4.92893 4.92893C6.8043 3.05357 9.34784 2 12 2C17.4081 2 22 5.92007 22 11C22 12.5913 21.3679 14.1174 20.2426 15.2426C19.1174 16.3679 17.5913 17 16 17H14.23C14.0974 17 13.9702 17.0527 13.8764 17.1464C13.7827 17.2402 13.73 17.3674 13.73 17.5C13.73 17.6096 13.7725 17.7312 13.8628 17.8414C14.2552 18.2758 14.5 18.8573 14.5 19.5C14.5 20.163 14.2366 20.7989 13.7678 21.2678C13.2989 21.7366 12.663 22 12 22C9.34784 22 6.8043 20.9464 4.92893 19.0711C3.05357 17.1957 2 14.6522 2 12C2 9.34784 3.05357 6.8043 4.92893 4.92893ZM12 4C9.87827 4 7.84344 4.84285 6.34315 6.34315C4.84285 7.84344 4 9.87827 4 12C4 14.1217 4.84285 16.1566 6.34315 17.6569C7.84344 19.1571 9.87827 20 12 20C12.1326 20 12.2598 19.9473 12.3536 19.8536C12.4473 19.7598 12.5 19.6326 12.5 19.5C12.5 19.3724 12.4523 19.2618 12.3752 19.1783L12.3617 19.1636L12.3488 19.1485C11.9849 18.7213 11.73 18.1471 11.73 17.5C11.73 16.837 11.9934 16.2011 12.4622 15.7322C12.9311 15.2634 13.567 15 14.23 15H16C17.0609 15 18.0783 14.5786 18.8284 13.8284C19.5786 13.0783 20 12.0609 20 11C20 7.23993 16.5319 4 12 4Z" fill="#71717A"/>
</svg>
