<svg width="24" height="24" viewBox="0 0 24 24" fill="none" xmlns="http://www.w3.org/2000/svg">
<path d="M12 12C14.21 12 16 10.21 16 8C16 5.79 14.21 4 12 4C9.79 4 8 5.79 8 8C8 10.21 9.79 12 12 12Z" fill="#71717A"/>
<path d="M12 14C9.33 14 4 15.34 4 18V20H13.207C13.0722 19.5232 13 19.02 13 18.5C13 16.8471 13.7291 15.3645 14.8833 14.3563C13.827 14.1189 12.7954 14 12 14Z" fill="#71717A"/>
<path d="M22.4687 19.4406C22.488 19.3 22.4976 19.1547 22.4976 19C22.4976 18.85 22.488 18.7 22.4639 18.5594L23.4422 17.8187C23.5289 17.7531 23.553 17.6266 23.5 17.5328L22.5747 15.9766C22.5169 15.8734 22.3964 15.8406 22.2904 15.8734L21.1387 16.3234C20.8977 16.1453 20.6423 15.9953 20.358 15.8828L20.1845 14.6922C20.1652 14.5797 20.0689 14.5 19.9532 14.5H18.1027C17.987 14.5 17.8955 14.5797 17.8762 14.6922L17.7027 15.8828C17.4184 15.9953 17.1582 16.15 16.922 16.3234L15.7703 15.8734C15.6643 15.8359 15.5438 15.8734 15.486 15.9766L14.5655 17.5328C14.5077 17.6313 14.527 17.7531 14.6234 17.8187L15.6016 18.5594C15.5775 18.7 15.5583 18.8547 15.5583 19C15.5583 19.1453 15.5679 19.3 15.592 19.4406L14.6137 20.1812C14.527 20.2469 14.5029 20.3734 14.5559 20.4672L15.4812 22.0234C15.539 22.1266 15.6595 22.1594 15.7655 22.1266L16.9172 21.6766C17.1582 21.8547 17.4136 22.0047 17.6979 22.1172L17.8714 23.3078C17.8955 23.4203 17.987 23.5 18.1027 23.5H19.9532C20.0689 23.5 20.1652 23.4203 20.1797 23.3078L20.3532 22.1172C20.6375 22.0047 20.8977 21.8547 21.1339 21.6766L22.2856 22.1266C22.3916 22.1641 22.5121 22.1266 22.5699 22.0234L23.4952 20.4672C23.553 20.3641 23.5289 20.2469 23.4374 20.1812L22.4687 19.4406ZM20.528 19C20.528 19.8284 19.8564 20.5 19.028 20.5C18.1995 20.5 17.528 19.8284 17.528 19C17.528 18.1716 18.1995 17.5 19.028 17.5C19.8564 17.5 20.528 18.1716 20.528 19Z" fill="#71717A"/>
</svg>
