<svg width="24" height="24" viewBox="0 0 24 24" fill="none" xmlns="http://www.w3.org/2000/svg">
<path d="M17.0403 5.72844L14 3.99109C13.9952 2.89062 13.1016 2 12 2C10.8984 2 10.0048 2.89062 10 3.99109L6.00803 6.27223C5.71205 6.09918 5.36761 6 5 6C3.89543 6 3 6.89543 3 8C3 8.74028 3.4022 9.38663 4 9.73244V13.1707C2.83481 13.5825 2 14.6938 2 16C2 17.6569 3.34315 19 5 19C5.74905 19 6.43398 18.7255 6.95967 18.2716L10 20.0089C10.0048 21.1094 10.8984 22 12 22C13.1016 22 13.9952 21.1094 14 20.0089L17.992 17.7278C18.288 17.9008 18.6324 18 19 18C20.1046 18 21 17.1046 21 16C21 15.2597 20.5978 14.6134 20 14.2676V10.8293C21.1652 10.4175 22 9.30622 22 8C22 6.34315 20.6569 5 19 5C18.251 5 17.566 5.27452 17.0403 5.72844ZM13.008 18.2722C12.712 18.0992 12.3676 18 12 18C11.6324 18 11.288 18.0992 10.992 18.2722L7.95238 16.5353C7.98367 16.3616 8 16.1827 8 16C8 14.6938 7.16519 13.5825 6 13.1707V9.73244C6.5954 9.38801 6.99677 8.74546 6.99998 8.00891L10.992 5.72777C11.288 5.90082 11.6324 6 12 6C12.3676 6 12.712 5.90082 13.008 5.72777L16.0476 7.46468C16.0163 7.63838 16 7.81728 16 8C16 9.30622 16.8348 10.4175 18 10.8293V14.2676C17.4046 14.612 17.0032 15.2545 17 15.9911L13.008 18.2722Z" fill="#71717A"/>
</svg>
