<svg width="24" height="24" viewBox="0 0 24 24" fill="none" xmlns="http://www.w3.org/2000/svg">
<path d="M5 13C5 7.91199 7.902 3.56399 12 1.81799C16.097 3.56399 19 7.91199 19 13C19 13.823 18.924 14.626 18.779 15.403L20.719 17.235C20.7994 17.3108 20.8524 17.411 20.8697 17.5201C20.8871 17.6292 20.8679 17.741 20.815 17.838L18.32 22.413C18.2828 22.4813 18.2302 22.54 18.1663 22.5844C18.1024 22.6288 18.0291 22.6577 17.9521 22.6687C17.8751 22.6798 17.7966 22.6727 17.7228 22.6481C17.649 22.6235 17.5819 22.5821 17.527 22.527L15.293 20.293C15.2 20.2 15.0897 20.1263 14.9682 20.076C14.8467 20.0257 14.7165 19.9999 14.585 20H9.414C9.14881 20 8.89449 20.1054 8.707 20.293L6.472 22.527C6.41705 22.5819 6.35008 22.6232 6.2764 22.6476C6.20272 22.6721 6.12434 22.6791 6.04749 22.6681C5.97064 22.657 5.89742 22.6282 5.83363 22.5839C5.76984 22.5396 5.71724 22.4811 5.68 22.413L3.184 17.838C3.13115 17.741 3.1119 17.6292 3.12927 17.5201C3.14663 17.411 3.19964 17.3108 3.28 17.235L5.22 15.403C5.076 14.626 5 13.823 5 13ZM6.475 19.696L7.292 18.879C7.57055 18.6001 7.90133 18.3788 8.26543 18.2278C8.62954 18.0768 9.01983 17.9991 9.414 17.999H14.585C14.9792 17.9991 15.3695 18.0768 15.7336 18.2278C16.0977 18.3788 16.4284 18.6001 16.707 18.879L17.524 19.696L18.506 17.896L17.406 16.856C17.1629 16.6264 16.9812 16.3395 16.8776 16.0215C16.774 15.7036 16.7518 15.3647 16.813 15.036C16.9378 14.3645 17.0004 13.683 17 13C17 9.12999 15.005 5.69999 12 4.03999C8.995 5.69999 7 9.12999 7 13C7 13.691 7.063 14.372 7.186 15.036C7.24719 15.3647 7.22497 15.7036 7.12137 16.0215C7.01778 16.3395 6.83611 16.6264 6.593 16.856L5.493 17.896L6.475 19.696ZM12 13C11.4696 13 10.9609 12.7893 10.5858 12.4142C10.2107 12.0391 10 11.5304 10 11C10 10.4696 10.2107 9.96085 10.5858 9.58578C10.9609 9.21071 11.4696 8.99999 12 8.99999C12.5304 8.99999 13.0391 9.21071 13.4142 9.58578C13.7893 9.96085 14 10.4696 14 11C14 11.5304 13.7893 12.0391 13.4142 12.4142C13.0391 12.7893 12.5304 13 12 13Z" fill="#71717A"/>
</svg>
