<svg width="24" height="24" viewBox="0 0 24 24" fill="none" xmlns="http://www.w3.org/2000/svg">
<path d="M2 8C2 7.44772 2.44772 7 3 7H21C21.5523 7 22 7.44772 22 8V16C22 16.5523 21.5523 17 21 17H3C2.44772 17 2 16.5523 2 16V8ZM5.79375 10.0375V14.5H6.525V12.525H8.7875V14.5H9.51875V10.0375H8.7875V11.9H6.525V10.0375H5.79375ZM12.375 9.95C11.6875 9.95 11.15 10.1687 10.7625 10.6187C10.3875 11.0437 10.2062 11.5938 10.2062 12.275C10.2062 12.95 10.3875 13.5 10.7625 13.925C11.15 14.3625 11.6875 14.5875 12.375 14.5875C13.0563 14.5875 13.5937 14.3687 13.9875 13.9312C14.3625 13.5125 14.55 12.9625 14.55 12.275C14.55 11.5875 14.3625 11.0312 13.9875 10.6125C13.5937 10.1687 13.0563 9.95 12.375 9.95ZM12.375 10.5937C12.8375 10.5937 13.1937 10.7375 13.4437 11.0375C13.6875 11.3375 13.8125 11.75 13.8125 12.275C13.8125 12.8 13.6875 13.2062 13.4437 13.5C13.1937 13.7937 12.8375 13.9438 12.375 13.9438C11.9125 13.9438 11.55 13.7875 11.3 13.4813C11.0562 13.1813 10.9375 12.7813 10.9375 12.275C10.9375 11.7625 11.0562 11.3625 11.3 11.0625C11.5562 10.75 11.9125 10.5937 12.375 10.5937ZM14.8937 10.0375V10.6625H16.3562V14.5H17.0875V10.6625H18.55V10.0375H14.8937Z" fill="#71717A"/>
</svg>
