<svg width="24" height="24" viewBox="0 0 24 24" fill="none" xmlns="http://www.w3.org/2000/svg">
<path d="M5 12C5 15.866 8.13401 19 12 19V21C7.02944 21 3 16.9706 3 12C3 7.02944 7.02944 3 12 3C16.9706 3 21 7.02944 21 12H19C19 8.13401 15.866 5 12 5C8.13401 5 5 8.13401 5 12Z" fill="#71717A"/>
<path d="M11.5534 10.2535C11.182 10.1049 10.7577 10.192 10.4749 10.4749C10.192 10.7577 10.1049 11.1819 10.2535 11.5534L14.4961 22.16C14.621 22.4721 14.8943 22.7006 15.2236 22.7681C15.5528 22.8357 15.894 22.7334 16.1317 22.4957L17.5459 21.0815L18.9602 22.4957C19.3507 22.8862 19.9838 22.8862 20.3744 22.4957L22.4957 20.3744C22.8862 19.9838 22.8862 19.3507 22.4957 18.9601L21.0815 17.5459L22.4957 16.1317C22.7334 15.894 22.8357 15.5528 22.7682 15.2235C22.7006 14.8943 22.4721 14.621 22.16 14.4961L11.5534 10.2535ZM16.8388 18.9601L15.7899 20.0091L12.977 12.977L20.0091 15.7899L18.9602 16.8388C18.5696 17.2293 18.5696 17.8625 18.9602 18.253L20.3744 19.6673L19.6673 20.3744L18.253 18.9601C17.8625 18.5696 17.2294 18.5696 16.8388 18.9601Z" fill="#71717A"/>
</svg>
