<svg width="24" height="24" viewBox="0 0 24 24" fill="none" xmlns="http://www.w3.org/2000/svg">
<path d="M21.4 7.5C22.2 8.3 22.2 9.6 21.4 10.3L18.6 13.1L10.8 5.3L13.6 2.5C14.4 1.7 15.7 1.7 16.4 2.5L18.2 4.3L21.2 1.3L22.6 2.7L19.6 5.7L21.4 7.5ZM15.6 13.3L14.2 11.9L11.4 14.7L9.29999 12.6L12.1 9.8L10.7 8.4L7.89999 11.2L6.39999 9.8L3.59999 12.6C2.79999 13.4 2.79999 14.7 3.59999 15.4L5.39999 17.2L1.39999 21.2L2.79999 22.6L6.79999 18.6L8.59999 20.4C9.39999 21.2 10.7 21.2 11.4 20.4L14.2 17.6L12.8 16.2L15.6 13.3Z" fill="#71717A"/>
</svg>
