<svg width="24" height="24" viewBox="0 0 24 24" fill="none" xmlns="http://www.w3.org/2000/svg">
<path d="M6 5C6 5.53043 6.21071 6.03914 6.58579 6.41421C6.96086 6.78929 7.46957 7 8 7C8.53043 7 9.03914 6.78929 9.41421 6.41421C9.78929 6.03914 10 5.53043 10 5C10 4.46957 9.78929 3.96086 9.41421 3.58579C9.03914 3.21071 8.53043 3 8 3C7.46957 3 6.96086 3.21071 6.58579 3.58579C6.21071 3.96086 6 4.46957 6 5Z" fill="#71717A"/>
<path d="M14 5C14 5.26264 14.0517 5.52272 14.1522 5.76537C14.2528 6.00802 14.4001 6.2285 14.5858 6.41421C14.7715 6.59993 14.992 6.74725 15.2346 6.84776C15.4773 6.94827 15.7374 7 16 7C16.2626 7 16.5227 6.94827 16.7654 6.84776C17.008 6.74725 17.2285 6.59993 17.4142 6.41421C17.5999 6.2285 17.7473 6.00802 17.8478 5.76537C17.9483 5.52272 18 5.26264 18 5C18 4.73736 17.9483 4.47728 17.8478 4.23463C17.7473 3.99198 17.5999 3.7715 17.4142 3.58579C17.2285 3.40007 17.008 3.25275 16.7654 3.15224C16.5227 3.05173 16.2626 3 16 3C15.7374 3 15.4773 3.05173 15.2346 3.15224C14.992 3.25275 14.7715 3.40007 14.5858 3.58579C14.4001 3.7715 14.2528 3.99198 14.1522 4.23463C14.0517 4.47728 14 4.73736 14 5Z" fill="#71717A"/>
<path d="M6 12C6 12.5304 6.21071 13.0391 6.58579 13.4142C6.96086 13.7893 7.46957 14 8 14C8.53043 14 9.03914 13.7893 9.41421 13.4142C9.78929 13.0391 10 12.5304 10 12C10 11.4696 9.78929 10.9609 9.41421 10.5858C9.03914 10.2107 8.53043 10 8 10C7.46957 10 6.96086 10.2107 6.58579 10.5858C6.21071 10.9609 6 11.4696 6 12Z" fill="#71717A"/>
<path d="M14 12C14 12.2626 14.0517 12.5227 14.1522 12.7654C14.2528 13.008 14.4001 13.2285 14.5858 13.4142C14.7715 13.5999 14.992 13.7472 15.2346 13.8478C15.4773 13.9483 15.7374 14 16 14C16.2626 14 16.5227 13.9483 16.7654 13.8478C17.008 13.7472 17.2285 13.5999 17.4142 13.4142C17.5999 13.2285 17.7473 13.008 17.8478 12.7654C17.9483 12.5227 18 12.2626 18 12C18 11.7374 17.9483 11.4773 17.8478 11.2346C17.7473 10.992 17.5999 10.7715 17.4142 10.5858C17.2285 10.4001 17.008 10.2528 16.7654 10.1522C16.5227 10.0517 16.2626 10 16 10C15.7374 10 15.4773 10.0517 15.2346 10.1522C14.992 10.2528 14.7715 10.4001 14.5858 10.5858C14.4001 10.7715 14.2528 10.992 14.1522 11.2346C14.0517 11.4773 14 11.7374 14 12Z" fill="#71717A"/>
<path d="M6 19C6 19.5304 6.21071 20.0391 6.58579 20.4142C6.96086 20.7893 7.46957 21 8 21C8.53043 21 9.03914 20.7893 9.41421 20.4142C9.78929 20.0391 10 19.5304 10 19C10 18.4696 9.78929 17.9609 9.41421 17.5858C9.03914 17.2107 8.53043 17 8 17C7.46957 17 6.96086 17.2107 6.58579 17.5858C6.21071 17.9609 6 18.4696 6 19Z" fill="#71717A"/>
<path d="M14 19C14 19.2626 14.0517 19.5227 14.1522 19.7654C14.2528 20.008 14.4001 20.2285 14.5858 20.4142C14.7715 20.5999 14.992 20.7473 15.2346 20.8478C15.4773 20.9483 15.7374 21 16 21C16.2626 21 16.5227 20.9483 16.7654 20.8478C17.008 20.7473 17.2285 20.5999 17.4142 20.4142C17.5999 20.2285 17.7473 20.008 17.8478 19.7654C17.9483 19.5227 18 19.2626 18 19C18 18.7374 17.9483 18.4773 17.8478 18.2346C17.7473 17.992 17.5999 17.7715 17.4142 17.5858C17.2285 17.4001 17.008 17.2528 16.7654 17.1522C16.5227 17.0517 16.2626 17 16 17C15.7374 17 15.4773 17.0517 15.2346 17.1522C14.992 17.2528 14.7715 17.4001 14.5858 17.5858C14.4001 17.7715 14.2528 17.992 14.1522 18.2346C14.0517 18.4773 14 18.7374 14 19Z" fill="#71717A"/>
</svg>
