<svg width="24" height="24" viewBox="0 0 24 24" fill="none" xmlns="http://www.w3.org/2000/svg">
<path d="M7.10868 3L12.1996 7L7.10868 11H17V9H12.8913L15.4368 7L12.8913 5H17V3H7.10868Z" fill="#71717A"/>
<path d="M12 14C11.5263 14 11.107 14.0535 10.7337 14.1442L10.2616 12.2007C10.7957 12.071 11.3737 12 12 12C12.6263 12 13.2043 12.071 13.7384 12.2007L13.2663 14.1442C12.893 14.0535 12.4737 14 12 14Z" fill="#71717A"/>
<path d="M15.8847 15.8366C15.3451 15.2155 14.7017 14.6632 13.8583 14.3312L14.5908 12.4702C15.8307 12.9583 16.7247 13.754 17.3945 14.5249L15.8847 15.8366Z" fill="#71717A"/>
<path d="M10.1417 14.3312C9.29829 14.6632 8.65493 15.2155 8.11533 15.8366L6.60554 14.5249C7.27529 13.754 8.16931 12.9583 9.40917 12.4702L10.1417 14.3312Z" fill="#71717A"/>
<path d="M7.82929 17C7.76651 16.8224 7.68747 16.6524 7.59397 16.4919C7.62314 16.4525 7.65266 16.413 7.68259 16.3734L7.32324 16.1018C7.02126 15.7327 6.63304 15.4368 6.18933 15.245L6.08692 15.1676L6.06626 15.195C5.73495 15.069 5.37553 15 5 15C3.34315 15 2 16.3431 2 18C2 19.6569 3.34315 21 5 21C6.30622 21 7.41746 20.1652 7.82929 19H16.1707C16.5825 20.1652 17.6938 21 19 21C20.6569 21 22 19.6569 22 18C22 16.3431 20.6569 15 19 15C18.6245 15 18.2651 15.069 17.9337 15.195L17.9131 15.1676L17.8107 15.245C17.367 15.4368 16.9787 15.7327 16.6768 16.1018L16.3174 16.3734C16.3473 16.413 16.3769 16.4525 16.406 16.4919C16.3125 16.6524 16.2335 16.8224 16.1707 17H7.82929ZM19 19C18.4477 19 18 18.5523 18 18C18 17.4477 18.4477 17 19 17C19.5523 17 20 17.4477 20 18C20 18.5523 19.5523 19 19 19Z" fill="#71717A"/>
</svg>
