<svg width="24" height="24" viewBox="0 0 24 24" fill="none" xmlns="http://www.w3.org/2000/svg">
<path d="M16.6299 3.35461C16.7356 3.35461 16.822 3.44107 16.822 3.54673V5.07409C16.822 5.09932 16.8171 5.1243 16.8074 5.14761C16.7978 5.17092 16.7836 5.1921 16.7658 5.20994C16.7479 5.22778 16.7267 5.24193 16.7034 5.25158C16.6801 5.26124 16.6551 5.26621 16.6299 5.26621L13.3178 5.26525V6.73977H19.2783C19.5137 6.73983 19.7409 6.82634 19.9168 6.98289C20.0926 7.13943 20.2049 7.3551 20.2322 7.58894L20.2389 7.70037L20.2379 12.6071H21.4214C21.5271 12.6071 21.6135 12.6936 21.6135 12.7992V14.5879C21.6135 14.6388 21.5933 14.6877 21.5572 14.7237C21.5212 14.7598 21.4723 14.78 21.4214 14.78H20.2379V19.6848C20.2379 19.9201 20.1515 20.1472 19.9952 20.323C19.8388 20.4988 19.6234 20.6112 19.3897 20.6387L19.2792 20.6454H4.74825C4.49348 20.6454 4.24915 20.5442 4.069 20.3641C3.88885 20.1839 3.78765 19.9396 3.78765 19.6848L3.78669 14.78H2.59362C2.54267 14.78 2.4938 14.7598 2.45777 14.7237C2.42174 14.6877 2.4015 14.6388 2.4015 14.5879V12.7992C2.4015 12.6936 2.48795 12.6071 2.59362 12.6071H3.78669V7.70037C3.78675 7.46494 3.87326 7.23773 4.0298 7.06188C4.18635 6.88604 4.40202 6.7738 4.63586 6.74649L4.74825 6.73977H10.7472V5.26525H7.39758C7.34663 5.26525 7.29776 5.24501 7.26173 5.20898C7.2257 5.17295 7.20546 5.12408 7.20546 5.07313V3.54673C7.20546 3.44107 7.29192 3.35461 7.39758 3.35461H16.6299ZM18.3196 8.69555H5.77897V18.7559H18.3186V8.69555H18.3196ZM9.17854 12.1854C9.57547 12.1887 9.95489 12.3494 10.2335 12.6321C10.5121 12.9149 10.6671 13.2966 10.6646 13.6936C10.6671 14.0905 10.5121 14.4722 10.2335 14.755C9.95489 15.0377 9.57547 15.1984 9.17854 15.2017C8.78143 15.1987 8.40177 15.0381 8.12296 14.7553C7.84414 14.4725 7.68897 14.0907 7.69153 13.6936C7.69153 12.8617 8.35818 12.1854 9.17854 12.1854ZM14.8624 12.1854C15.2595 12.1885 15.6392 12.349 15.918 12.6318C16.1968 12.9146 16.352 13.2964 16.3494 13.6936C16.352 14.0907 16.1968 14.4725 15.918 14.7553C15.6392 15.0381 15.2595 15.1987 14.8624 15.2017C14.4655 15.1984 14.0861 15.0377 13.8075 14.755C13.5288 14.4722 13.3738 14.0905 13.3764 13.6936C13.3764 12.8617 14.0421 12.1854 14.8624 12.1854Z" fill="#71717A"/>
</svg>
