<svg width="24" height="24" viewBox="0 0 24 24" fill="none" xmlns="http://www.w3.org/2000/svg">
<path d="M10.0165 4.25793L4.2689 8.65314C4.03219 8.55448 3.77246 8.5 3.5 8.5C2.39543 8.5 1.5 9.39543 1.5 10.5C1.5 11.4889 2.21766 12.3101 3.16057 12.4713L5.46286 18.7204C5.17386 19.0672 5 19.5133 5 20C5 21.1046 5.89543 22 7 22C7.74028 22 8.38663 21.5978 8.73244 21H15.2676C15.6134 21.5978 16.2597 22 17 22C18.1046 22 19 21.1046 19 20C19 19.5133 18.8261 19.0672 18.5371 18.7204L20.8394 12.4713C21.7823 12.3101 22.5 11.4889 22.5 10.5C22.5 9.39543 21.6046 8.5 20.5 8.5C20.2275 8.5 19.9678 8.55448 19.7311 8.65314L13.9835 4.25793C13.9944 4.17349 14 4.0874 14 4C14 2.89543 13.1046 2 12 2C10.8954 2 10 2.89543 10 4C10 4.0874 10.0056 4.17349 10.0165 4.25793ZM18.3266 10.0969L14.4316 11.2425C14.0775 10.7535 13.5796 10.3756 13 10.1707V6.02358L18.3266 10.0969ZM18.8741 12.0206L16.7151 17.8807L14.4579 14.7206C14.7706 14.2746 14.9651 13.7397 14.9957 13.1613L18.8741 12.0206ZM15.0568 19H8.94319L11.1693 15.8835C11.4331 15.9594 11.7118 16 12 16C12.2882 16 12.5669 15.9594 12.8307 15.8835L15.0568 19ZM7.2849 17.8807L5.12592 12.0206L9.00426 13.1613C9.0349 13.7397 9.22937 14.2746 9.54212 14.7206L7.2849 17.8807ZM5.67339 10.0969L11 6.02358V10.1707C10.4204 10.3756 9.92247 10.7535 9.56845 11.2425L5.67339 10.0969Z" fill="#71717A"/>
</svg>
