<svg width="24" height="24" viewBox="0 0 24 24" fill="none" xmlns="http://www.w3.org/2000/svg">
<path d="M7.91602 15.1523L7.21875 13.7344H6.04395L7.23633 15.8496L6.01172 18H7.19824L7.91602 16.5557L8.63379 18H9.81738L8.5957 15.8496L9.78516 13.7344H8.61328L7.91602 15.1523Z" fill="#71717A"/>
<path d="M11.5049 13.7344H10.1572V18H11.1855V17.0039L11.085 14.9639L12.1172 18H12.7969L13.8291 14.9639L13.7285 17.0039V18H14.7598V13.7344H13.4092L12.457 16.7021L11.5049 13.7344Z" fill="#71717A"/>
<path d="M18.2373 18V17.209H16.4473V13.7344H15.4189V18H18.2373Z" fill="#71717A"/>
<path d="M21 19V9L15 3H5C3.89543 3 3 3.89543 3 5V19C3 20.1046 3.89543 21 5 21H19C20.1046 21 21 20.1046 21 19ZM19 19H5L5 5L12 5V12H19V19ZM19 9.82843V10H14V5H14.1716L19 9.82843Z" fill="#71717A"/>
</svg>
