<svg width="24" height="24" viewBox="0 0 24 24" fill="none" xmlns="http://www.w3.org/2000/svg">
<path d="M13 5.73243C13.5978 5.38662 14 4.74028 14 4C14 2.89543 13.1046 2 12 2C10.8954 2 10 2.89543 10 4C10 4.74028 10.4022 5.38663 11 5.73244V9.1707C10.3959 9.38422 9.88064 9.78571 9.52445 10.3049L6.43179 9.4802C6.20295 8.62765 5.42477 8 4.5 8C3.39543 8 2.5 8.89543 2.5 10C2.5 11.1046 3.39543 12 4.5 12C5.05315 12 5.55384 11.7754 5.91591 11.4125L9.00926 12.2374C9.05225 12.7866 9.24314 13.2943 9.54212 13.7206L7.1931 17.0092C7.12955 17.0031 7.06514 17 7 17C5.89543 17 5 17.8954 5 19C5 20.1046 5.89543 21 7 21C8.10457 21 9 20.1046 9 19C9 18.7044 8.93588 18.4238 8.8208 18.1714L11.1693 14.8835C11.4331 14.9594 11.7118 15 12 15C12.2882 15 12.5669 14.9594 12.8307 14.8835L15.1792 18.1713C15.0641 18.4238 15 18.7044 15 19C15 20.1046 15.8954 21 17 21C18.1046 21 19 20.1046 19 19C19 17.8954 18.1046 17 17 17C16.9349 17 16.8705 17.0031 16.8069 17.0092L14.4579 13.7206C14.7569 13.2943 14.9477 12.7866 14.9907 12.2374L18.0841 11.4125C18.4462 11.7754 18.9469 12 19.5 12C20.6046 12 21.5 11.1046 21.5 10C21.5 8.89543 20.6046 8 19.5 8C18.5752 8 17.797 8.62765 17.5682 9.4802L14.4756 10.3049C14.1194 9.78572 13.6041 9.38422 13 9.17071V5.73243Z" fill="#71717A"/>
</svg>
