<svg width="24" height="24" viewBox="0 0 24 24" fill="none" xmlns="http://www.w3.org/2000/svg">
<path d="M10.5217 5.10325L7.75072 9H4V11H8.78262L10.2783 8.89675L13.4783 14.8967L16.2493 11H20V9H15.2174L13.7217 11.1033L10.5217 5.10325Z" fill="#71717A"/>
<path fill-rule="evenodd" clip-rule="evenodd" d="M3 2H21C22.1 2 23 2.89 23 4V16C23 16.5304 22.7893 17.0391 22.4142 17.4142C22.0391 17.7893 21.5304 18 21 18H14V20H16V22H8V20H10V18H3C2.46957 18 1.96086 17.7893 1.58579 17.4142C1.21071 17.0391 1 16.5304 1 16V4C1 2.89 1.89 2 3 2ZM3 16H21V4H3V16Z" fill="#71717A"/>
</svg>
