<svg width="24" height="24" viewBox="0 0 24 24" fill="none" xmlns="http://www.w3.org/2000/svg">
<path d="M14.289 7.93932C14.7325 7.41636 15 6.73942 15 6C15 4.34315 13.6569 3 12 3C10.3431 3 9 4.34315 9 6C9 6.73942 9.26751 7.41636 9.71103 7.93932L5.00895 16C5.00597 16 5.00299 16 5 16C3.89543 16 3 16.8954 3 18C3 19.1046 3.89543 20 5 20C5.74028 20 6.38663 19.5978 6.73244 19L17.2676 19C17.6134 19.5978 18.2597 20 19 20C20.1046 20 21 19.1046 21 18C21 16.8954 20.1046 16 19 16C18.997 16 18.994 16 18.991 16L14.289 7.93932ZM11.4383 8.94751C11.6203 8.98197 11.808 9 12 9C12.192 9 12.3797 8.98197 12.5617 8.94751L17.259 17L6.74104 17L11.4383 8.94751Z" fill="#71717A"/>
</svg>
