<svg width="24" height="24" viewBox="0 0 24 24" fill="none" xmlns="http://www.w3.org/2000/svg">
<path fill-rule="evenodd" clip-rule="evenodd" d="M7.8135 12.42L10.6468 15.2771C10.8165 15.4478 11.0468 15.544 11.287 15.544C11.5271 15.544 11.7574 15.4478 11.9271 15.2771L16.8761 10.2865C17.0453 10.1154 17.1401 9.88397 17.1401 9.6429C17.1401 9.40183 17.0452 9.17023 16.876 8.99919L16.8097 8.93239C16.6401 8.76171 16.4099 8.66563 16.1697 8.66563C15.9295 8.66563 15.6994 8.76169 15.5297 8.93237L11.3558 13.2993L9.1504 11.0754C8.97334 10.8968 8.73291 10.7963 8.48195 10.7963C8.23099 10.7963 7.99057 10.8968 7.8135 11.0754C7.63647 11.2539 7.53724 11.4957 7.53724 11.7477C7.53724 11.9996 7.63647 12.2414 7.8135 12.42ZM20.65 4.74936L12 1.8418L3.35001 4.74936V13.4286C3.35001 15.7413 4.26104 17.9595 5.88309 19.5952C7.50518 21.2309 9.70548 22.15 12 22.15C14.2945 22.15 16.4948 21.2309 18.1169 19.5952C19.739 17.9595 20.65 15.7413 20.65 13.4286V4.74936ZM18.7539 13.4286C18.7539 15.2356 18.042 16.9684 16.7753 18.2458C15.5086 19.5231 13.7908 20.2405 12 20.2405C10.2092 20.2405 8.49143 19.5231 7.22473 18.2458C5.95799 16.9684 5.24612 15.2356 5.24612 13.4286V6.17254L12 3.76878L18.7539 6.17254V13.4286Z" fill="#71717A"/>
</svg>
