<svg width="24" height="24" viewBox="0 0 24 24" fill="none" xmlns="http://www.w3.org/2000/svg">
<path d="M15.005 2.00297C15.7071 2.00299 16.3969 2.18782 17.005 2.5389C17.613 2.88998 18.118 3.39494 18.469 4.00301C18.8201 4.61109 19.0049 5.30086 19.0049 6.00299C19.0049 6.70513 18.8201 7.3949 18.469 8.00297H23.005V10.003H21.005V20.003C21.005 20.2682 20.8996 20.5225 20.7121 20.7101C20.5246 20.8976 20.2702 21.003 20.005 21.003H4.005C3.73979 21.003 3.48543 20.8976 3.2979 20.7101C3.11036 20.5225 3.005 20.2682 3.005 20.003V10.003H1.005V8.00297H5.54C5.04269 7.14371 4.88269 6.13023 5.09111 5.15956C5.29952 4.18889 5.86146 3.33041 6.66767 2.75104C7.47387 2.17168 8.46672 1.91282 9.45318 2.02481C10.4396 2.13679 11.3492 2.61162 12.005 3.35697C12.3796 2.93066 12.8409 2.58931 13.3581 2.3558C13.8754 2.12228 14.4365 2.00198 15.004 2.00297H15.005ZM11.005 10.003H5.005V19.003H11.005V10.003ZM19.005 10.003H13.005V19.003H19.005V10.003ZM9.005 4.00297C8.48839 4.00419 7.99228 4.20527 7.62061 4.5641C7.24894 4.92292 7.03053 5.41165 7.01114 5.9279C6.99176 6.44416 7.17289 6.94789 7.5166 7.33358C7.86031 7.71927 8.33993 7.957 8.855 7.99697L9.005 8.00297H11.005V6.00297C11.005 5.52503 10.8339 5.06288 10.5226 4.70022C10.2113 4.33757 9.78043 4.09838 9.308 4.02597L9.15401 4.00797L9.004 4.00297H9.005ZM15.005 4.00297C14.5004 4.00281 14.0144 4.19337 13.6445 4.53646C13.2745 4.87955 13.0478 5.34981 13.01 5.85297L13.005 6.00297V8.00297H15.005C15.5094 8.00288 15.9951 7.8122 16.3649 7.46913C16.7347 7.12607 16.9612 6.65595 16.999 6.15297L17.005 6.00297C17.005 5.74032 16.9533 5.48025 16.8528 5.2376C16.7523 4.99495 16.6049 4.77447 16.4192 4.58875C16.2335 4.40304 16.013 4.25572 15.7704 4.15521C15.5277 4.0547 15.2676 4.00297 15.005 4.00297Z" fill="#71717A"/>
</svg>
