<svg width="24" height="24" viewBox="0 0 24 24" fill="none" xmlns="http://www.w3.org/2000/svg">
<path d="M12 12C14.21 12 16 10.21 16 8C16 5.79 14.21 4 12 4C9.79 4 8 5.79 8 8C8 10.21 9.79 12 12 12Z" fill="#71717A"/>
<path d="M12 14C9.33 14 4 15.34 4 18V20H13.207C13.0722 19.5232 13 19.02 13 18.5C13 16.8471 13.7291 15.3645 14.8833 14.3563C13.827 14.1189 12.7954 14 12 14Z" fill="#71717A"/>
<path d="M23 20.525C23 20.696 22.9067 20.8445 22.7644 20.921L19.2533 22.919C19.1822 22.973 19.0933 23 19 23C18.9067 23 18.8178 22.973 18.7467 22.919L15.2356 20.921C15.0933 20.8445 15 20.696 15 20.525V16.475C15 16.304 15.0933 16.1555 15.2356 16.079L18.7467 14.081C18.8178 14.027 18.9067 14 19 14C19.0933 14 19.1822 14.027 19.2533 14.081L22.7644 16.079C22.9067 16.1555 23 16.304 23 16.475V20.525ZM19 15L16.5 16.5L19 18L21.5 16.5L19 15Z" fill="#71717A"/>
</svg>
