<svg width="24" height="24" viewBox="0 0 24 24" fill="none" xmlns="http://www.w3.org/2000/svg">
<path d="M9.00001 10C9.01037 9.20757 9.32977 8.45051 9.89015 7.89013C10.4505 7.32976 11.2076 7.01036 12 7C12.7924 7.01036 13.5495 7.32976 14.1099 7.89013C14.6703 8.45051 14.9897 9.20757 15 10C14.9897 10.7924 14.6703 11.5495 14.1099 12.1099C13.5495 12.6702 12.7924 12.9896 12 13C11.2076 12.9896 10.4505 12.6702 9.89015 12.1099C9.32977 11.5495 9.01037 10.7924 9.00001 10ZM12 19L16 20V16.92C14.7937 17.6465 13.408 18.0206 12 18C10.592 18.0206 9.20634 17.6465 8.00001 16.92V20M12 4C11.212 3.98562 10.4293 4.13256 9.70018 4.43179C8.97103 4.73102 8.31078 5.17621 7.76002 5.74C7.19013 6.29137 6.73979 6.9541 6.437 7.68697C6.13422 8.41984 5.98547 9.20718 6.00001 10C5.9896 10.7878 6.14035 11.5694 6.44301 12.2968C6.74567 13.0242 7.19385 13.6821 7.76002 14.23C8.30821 14.7992 8.96731 15.25 9.69658 15.5544C10.4259 15.8588 11.2098 16.0105 12 16C12.7902 16.0105 13.5742 15.8588 14.3034 15.5544C15.0327 15.25 15.6918 14.7992 16.24 14.23C16.8062 13.6821 17.2544 13.0242 17.557 12.2968C17.8597 11.5694 18.0104 10.7878 18 10C18.0146 9.20718 17.8658 8.41984 17.563 7.68697C17.2602 6.9541 16.8099 6.29137 16.24 5.74C15.6892 5.17621 15.029 4.73102 14.2998 4.43179C13.5707 4.13256 12.788 3.98562 12 4ZM20 10C19.9787 10.9599 19.7857 11.9082 19.43 12.8C19.1096 13.7074 18.6248 14.5481 18 15.28V23L12 21L6.00001 23V15.28C4.7057 13.8265 3.99352 11.9463 4.00001 10C3.98239 8.95058 4.18005 7.90869 4.5808 6.93865C4.98154 5.9686 5.57687 5.09099 6.33001 4.36C7.06372 3.6001 7.94538 2.99863 8.92058 2.59273C9.89578 2.18683 10.9438 1.9851 12 2C13.0562 1.9851 14.1043 2.18683 15.0795 2.59273C16.0547 2.99863 16.9363 3.6001 17.67 4.36C18.4232 5.09099 19.0185 5.9686 19.4192 6.93865C19.82 7.90869 20.0176 8.95058 20 10Z" fill="#71717A"/>
</svg>
