<svg width="24" height="24" viewBox="0 0 24 24" fill="none" xmlns="http://www.w3.org/2000/svg">
<path d="M7 2V7H2V5H5V2H7Z" fill="#71717A"/>
<path d="M17 22V17H22V19H19V22H17Z" fill="#71717A"/>
<path d="M7.67651 19.7309C7.95297 19.7754 8.25275 19.8108 8.57281 19.8308L8.69754 17.8347C8.42165 17.8175 8.16523 17.7857 7.93171 17.7459L17.7458 7.93177C17.7856 8.16529 17.8174 8.42171 17.8347 8.6976L19.8308 8.57287C19.8108 8.2528 19.7754 7.95301 19.7308 7.67654C20.4886 7.24708 21 6.43326 21 5.5C21 4.11929 19.8807 3 18.5 3C17.4886 3 16.6175 3.60057 16.2238 4.46455C16.0562 4.44479 15.8815 4.42885 15.7003 4.41785L15.5791 6.41417C15.7985 6.42749 16.0056 6.45004 16.1988 6.47852C16.2157 6.51839 16.2337 6.55773 16.2527 6.5965L6.5965 16.2527C6.55772 16.2337 6.51837 16.2157 6.47849 16.1987C6.45002 16.0056 6.42747 15.7985 6.41415 15.5791L4.41782 15.7003C4.42882 15.8815 4.44476 16.0562 4.46452 16.2239C3.60056 16.6175 3 17.4886 3 18.5C3 19.8807 4.11929 21 5.5 21C6.43323 21 7.24704 20.4887 7.67651 19.7309Z" fill="#71717A"/>
<path d="M9.14652 9.14655C9.02644 9.26663 8.91145 9.38643 8.80137 9.50584L7.33091 8.15021C7.45957 8.01064 7.59332 7.87132 7.73231 7.73233C7.8713 7.59334 8.01062 7.4596 8.15018 7.33093L9.50582 8.80139C9.38641 8.91148 9.26661 9.02646 9.14652 9.14655Z" fill="#71717A"/>
<path d="M8.16548 10.2589C7.95805 10.5285 7.77388 10.7954 7.61056 11.0585L5.91144 10.0035C6.11045 9.68296 6.33271 9.36123 6.58025 9.03944L8.16548 10.2589Z" fill="#71717A"/>
<path d="M11.0584 7.61059C10.7954 7.77391 10.5285 7.95807 10.2589 8.1655L9.03942 6.58027C9.36121 6.33273 9.68294 6.11047 10.0035 5.91146L11.0584 7.61059Z" fill="#71717A"/>
<path d="M7.14831 11.9022C7.00509 12.2026 6.88692 12.4971 6.79017 12.7841L4.89494 12.1453C5.01695 11.7833 5.16507 11.4147 5.34299 11.0415L7.14831 11.9022Z" fill="#71717A"/>
<path d="M12.7841 6.79019C12.4971 6.88694 12.2026 7.00512 11.9022 7.14833L11.0415 5.34301C11.4146 5.16509 11.7833 5.01698 12.1452 4.89496L12.7841 6.79019Z" fill="#71717A"/>
<path d="M6.54424 13.7001C6.47896 14.0246 6.43883 14.3372 6.41816 14.6353L4.42295 14.497C4.44931 14.1168 4.50049 13.7184 4.58354 13.3056L6.54424 13.7001Z" fill="#71717A"/>
<path d="M14.6353 6.41819C14.3372 6.43885 14.0246 6.47899 13.7001 6.54427L13.3056 4.58356C13.7184 4.50051 14.1168 4.44933 14.497 4.42297L14.6353 6.41819Z" fill="#71717A"/>
<path d="M15.1169 15.1169C15.2367 14.9971 15.3514 14.8776 15.4612 14.7585L16.9318 16.1139C16.8034 16.2533 16.6699 16.3924 16.5311 16.5311C16.3923 16.6699 16.2532 16.8035 16.1138 16.9319L14.7584 15.4612C14.8776 15.3514 14.9971 15.2367 15.1169 15.1169Z" fill="#71717A"/>
<path d="M16.0953 14.0071C16.302 13.738 16.4856 13.4717 16.6482 13.2092L18.3483 14.2627C18.1498 14.5829 17.9281 14.9043 17.6811 15.2258L16.0953 14.0071Z" fill="#71717A"/>
<path d="M13.2091 16.6483C13.4716 16.4856 13.738 16.3021 14.007 16.0953L15.2257 17.6811C14.9043 17.9282 14.5829 18.1499 14.2626 18.3483L13.2091 16.6483Z" fill="#71717A"/>
<path d="M17.1084 12.3671C17.2509 12.0673 17.3684 11.7733 17.4645 11.4868L19.3607 12.1227C19.2394 12.4844 19.092 12.8527 18.9148 13.2256L17.1084 12.3671Z" fill="#71717A"/>
<path d="M11.4868 17.4646C11.7733 17.3685 12.0672 17.251 12.367 17.1085L13.2256 18.9149C12.8527 19.0921 12.4844 19.2395 12.1227 19.3608L11.4868 17.4646Z" fill="#71717A"/>
<path d="M17.7083 10.5727C17.7728 10.2489 17.8123 9.93691 17.8324 9.63936L19.8279 9.77396C19.8022 10.1537 19.7519 10.5515 19.6697 10.9637L17.7083 10.5727Z" fill="#71717A"/>
<path d="M9.6393 17.8324C9.93685 17.8124 10.2489 17.7729 10.5726 17.7083L10.9637 19.6697C10.5515 19.7519 10.1536 19.8023 9.77391 19.8279L9.6393 17.8324Z" fill="#71717A"/>
</svg>
