<svg width="24" height="24" viewBox="0 0 24 24" fill="none" xmlns="http://www.w3.org/2000/svg">
<path d="M5 7C3.89543 7 3 6.10457 3 5C3 3.89543 3.89543 3 5 3C5.74028 3 6.38663 3.4022 6.73244 4H17.2676C17.6134 3.4022 18.2597 3 19 3C20.1046 3 21 3.89543 21 5C21 6.10457 20.1046 7 19 7C18.2597 7 17.6134 6.5978 17.2676 6H9.52852L17.85 9.86352C18.1753 9.63449 18.5719 9.5 19 9.5C20.1046 9.5 21 10.3954 21 11.5C21 12.6046 20.1046 13.5 19 13.5C17.9553 13.5 17.0976 12.699 17.0078 11.6776L6.15005 6.63647C5.82475 6.86551 5.42808 7 5 7Z" fill="#71717A"/>
<path d="M5 9.5C6.0833 9.5 6.96544 10.3613 6.99901 11.4364L17.9452 17.3005C18.2514 17.11 18.6129 17 19 17C20.1046 17 21 17.8954 21 19C21 20.1046 20.1046 21 19 21C18.2597 21 17.6134 20.5978 17.2676 20H6.73244C6.38663 20.5978 5.74028 21 5 21C3.89543 21 3 20.1046 3 19C3 17.8954 3.89543 17 5 17C5.74028 17 6.38663 17.4022 6.73244 18H15.0157L6.05483 13.1995C5.74861 13.39 5.38715 13.5 5 13.5C3.89543 13.5 3 12.6046 3 11.5C3 10.3954 3.89543 9.5 5 9.5Z" fill="#71717A"/>
</svg>
