<svg width="24" height="24" viewBox="0 0 24 24" fill="none" xmlns="http://www.w3.org/2000/svg">
<path fill-rule="evenodd" clip-rule="evenodd" d="M3.5 4.85714L12 2L20.5 4.85714V13.4286C20.5 15.7019 19.6045 17.882 18.0104 19.4895C16.4163 21.0969 14.2543 22 12 22C9.74566 22 7.58365 21.0969 5.98959 19.4895C4.39553 17.882 3.5 15.7019 3.5 13.4286V4.85714ZM9.04391 11.1808C8.89487 11.0305 8.69274 10.9461 8.48197 10.9461C8.2712 10.9461 8.06906 11.0305 7.92002 11.1808C7.77098 11.3311 7.68726 11.5349 7.68726 11.7475C7.68726 11.96 7.77098 12.1638 7.92002 12.3141L10.7534 15.1713C10.895 15.3138 11.0869 15.3938 11.287 15.3938C11.487 15.3938 11.6789 15.3138 11.8206 15.1713L16.7695 10.1808C16.9108 10.038 16.9901 9.84445 16.9901 9.6427C16.9901 9.44095 16.9108 9.24743 16.7695 9.1046L16.7034 9.03793C16.5617 8.89545 16.3698 8.81543 16.1697 8.81543C15.9697 8.81543 15.7778 8.89545 15.6361 9.03793L11.3578 13.5141L9.04391 11.1808Z" fill="#71717A"/>
</svg>
