<svg width="24" height="24" viewBox="0 0 24 24" fill="none" xmlns="http://www.w3.org/2000/svg">
<path d="M5.33 15.929C5.10977 14.9679 4.99907 13.985 5 12.999C5 7.91199 7.903 3.56399 12 1.81799C16.098 3.56399 19 7.91199 19 13C19 14.01 18.886 14.991 18.67 15.929L20.69 17.724C20.7772 17.8014 20.8346 17.9068 20.8523 18.022C20.87 18.1372 20.8469 18.255 20.787 18.355L18.33 22.451C18.2909 22.5161 18.2374 22.5714 18.1737 22.6127C18.1101 22.6541 18.0378 22.6804 17.9624 22.6896C17.887 22.6989 17.8105 22.6909 17.7387 22.6661C17.6669 22.6414 17.6017 22.6007 17.548 22.547L15.293 20.293C15.1055 20.1054 14.8512 20 14.586 20H9.415C9.14981 20 8.89549 20.1054 8.708 20.293L6.453 22.547C6.39929 22.6007 6.33406 22.6414 6.26226 22.6661C6.19046 22.6909 6.11397 22.6989 6.0386 22.6896C5.96322 22.6804 5.89095 22.6541 5.82726 22.6127C5.76356 22.5714 5.71013 22.5161 5.671 22.451L3.214 18.355C3.15422 18.2552 3.13111 18.1377 3.14863 18.0227C3.16615 17.9077 3.22322 17.8024 3.31 17.725L5.33 15.929ZM12 12.999C12.2663 13.005 12.5312 12.9576 12.779 12.8598C13.0268 12.762 13.2526 12.6157 13.443 12.4294C13.6335 12.2432 13.7848 12.0207 13.8882 11.7752C13.9915 11.5296 14.0447 11.2659 14.0447 10.9995C14.0447 10.7331 13.9915 10.4694 13.8882 10.2238C13.7848 9.97825 13.6335 9.75582 13.443 9.56956C13.2526 9.3833 13.0268 9.23697 12.779 9.13916C12.5312 9.04135 12.2663 8.99404 12 8.99999C11.4696 8.99999 10.9609 9.21071 10.5858 9.58578C10.2107 9.96085 10 10.4696 10 11C10 11.5304 10.2107 12.0391 10.5858 12.4142C10.9609 12.7893 11.4696 13 12 13V12.999Z" fill="#71717A"/>
</svg>
