<svg width="24" height="24" viewBox="0 0 24 24" fill="none" xmlns="http://www.w3.org/2000/svg">
<path d="M4 12C4 9.846 4.851 7.891 6.235 6.453C6.357 6.564 6.462 6.705 6.541 6.883C6.745 7.34 6.745 7.811 6.745 8.228C6.745 8.556 6.745 8.868 6.85 9.093C6.994 9.401 7.616 9.533 8.165 9.647L8.185 9.652C8.375 9.692 8.57 9.732 8.748 9.782C9.254 9.922 9.646 10.377 9.959 10.742C10.089 10.893 10.282 11.116 10.379 11.172C10.429 11.136 10.59 10.961 10.669 10.674C10.731 10.454 10.713 10.26 10.624 10.154C10.064 9.494 10.095 8.224 10.268 7.755C10.54 7.016 11.39 7.071 12.012 7.111H12.018C12.248 7.126 12.464 7.141 12.626 7.12C13.097 7.06 13.321 6.504 13.461 6.156C13.506 6.045 13.542 5.955 13.575 5.91C13.84 5.547 14.599 5.018 15.152 4.645C16.1825 5.08811 17.1086 5.74235 17.8706 6.5655C18.6326 7.38866 19.2136 8.36244 19.576 9.424C20.43 9.714 21.218 10.144 21.915 10.687C21.272 5.785 17.078 2 12 2C6.477 2 2 6.477 2 12C2 17.078 5.785 21.272 10.687 21.915C10.1383 21.2114 9.71134 20.4208 9.424 19.576C7.84215 19.0375 6.46854 18.0174 5.4958 16.6587C4.52307 15.3001 4.00001 13.671 4 12ZM17 13C16.4747 13 15.9545 13.1034 15.4692 13.3044C14.9838 13.5054 14.5428 13.8 14.1714 14.1715C13.7999 14.5429 13.5052 14.9839 13.3042 15.4692C13.1032 15.9545 12.9997 16.4747 12.9997 17C12.9997 17.5253 13.1032 18.0455 13.3042 18.5308C13.5052 19.0161 13.7999 19.4571 14.1714 19.8285C14.5428 20.2 14.9838 20.4946 15.4692 20.6956C15.9545 20.8966 16.4747 21 17 21C18.0608 20.9999 19.0782 20.5785 19.8282 19.8283C20.5783 19.0782 20.9997 18.0608 20.9997 17C20.9997 15.9392 20.5783 14.9218 19.8282 14.1717C19.0782 13.4215 18.0608 13.0001 17 13ZM11 17C11 15.4087 11.6321 13.8826 12.7574 12.7574C13.8826 11.6321 15.4087 11 17 11C18.5913 11 20.1174 11.6321 21.2426 12.7574C22.3679 13.8826 23 15.4087 23 17C23 18.5913 22.3679 20.1174 21.2426 21.2426C20.1174 22.3679 18.5913 23 17 23C15.4087 23 13.8826 22.3679 12.7574 21.2426C11.6321 20.1174 11 18.5913 11 17ZM16 14V18H20V16H18V14H16Z" fill="#71717A"/>
</svg>
