<svg width="24" height="24" viewBox="0 0 24 24" fill="none" xmlns="http://www.w3.org/2000/svg">
<path d="M14.1514 16.6377C14.6609 16.2384 15.3025 16 16 16C17.6569 16 19 17.3431 19 19C19 20.6569 17.6569 22 16 22C14.3431 22 13 20.6569 13 19C13 18.7682 13.0283 18.5429 13.0781 18.3262L8.16504 15.1982C8.63957 14.7286 9.00928 14.1534 9.23828 13.5117L14.1514 16.6377ZM16 18C15.4477 18 15 18.4477 15 19C15 19.5523 15.4477 20 16 20C16.5523 20 17 19.5523 17 19C17 18.4477 16.5523 18 16 18ZM5 9C6.65685 9 8 10.3431 8 12C8 13.6569 6.65685 15 5 15C3.34315 15 2 13.6569 2 12C2 10.3431 3.34315 9 5 9ZM20 9C21.6569 9 23 10.3431 23 12C23 13.6569 21.6569 15 20 15C18.6941 15 17.5859 14.1647 17.1738 13H9.3877C9.46067 12.6785 9.49997 12.3436 9.5 12C9.49997 11.6565 9.46062 11.3214 9.3877 11H17.1738C17.5859 9.83532 18.6941 9 20 9ZM5 11C4.44772 11 4 11.4477 4 12C4 12.5523 4.44772 13 5 13C5.55228 13 6 12.5523 6 12C6 11.4477 5.55228 11 5 11ZM20 11C19.4477 11 19 11.4477 19 12C19 12.5523 19.4477 13 20 13C20.5523 13 21 12.5523 21 12C21 11.4477 20.5523 11 20 11ZM16 2C17.6569 2 19 3.34315 19 5C19 6.65685 17.6569 8 16 8C15.3023 8 14.6619 7.75979 14.1523 7.36035L9.23926 10.4873C9.01011 9.84517 8.64001 9.2696 8.16504 8.7998L13.0781 5.67383C13.0283 5.45709 13 5.23185 13 5C13 3.34315 14.3431 2 16 2ZM16 4C15.4477 4 15 4.44772 15 5C15 5.55228 15.4477 6 16 6C16.5523 6 17 5.55228 17 5C17 4.44772 16.5523 4 16 4Z" fill="#71717A"/>
</svg>
