<svg width="24" height="24" viewBox="0 0 24 24" fill="none" xmlns="http://www.w3.org/2000/svg">
<path d="M3 2C1.89543 2 1 2.89543 1 4V20C1 21.1046 1.89543 22 3 22H12V20H3V6H21V13H23V4C23 2.89543 22.1046 2 21 2H3Z" fill="#71717A"/>
<path d="M15.5 11C13.0147 11 11 13.0147 11 15.5C11 17.9853 13.0147 20 15.5 20C16.3805 20 17.202 19.7471 17.8957 19.31L20.7929 22.2071L22.2071 20.7929L19.31 17.8957C19.7471 17.202 20 16.3805 20 15.5C20 13.0147 17.9853 11 15.5 11ZM13 15.5C13 14.1193 14.1193 13 15.5 13C16.8807 13 18 14.1193 18 15.5C18 16.8807 16.8807 18 15.5 18C14.1193 18 13 16.8807 13 15.5Z" fill="#71717A"/>
<path d="M7.73244 8C7.38663 7.4022 6.74028 7 6 7C4.89543 7 4 7.89543 4 9C4 9.74028 4.4022 10.3866 5 10.7324V14.2676C4.4022 14.6134 4 15.2597 4 16C4 17.1046 4.89543 18 6 18C7.10457 18 8 17.1046 8 16C8 15.2597 7.5978 14.6134 7 14.2676V10.7324C7.30363 10.5568 7.5568 10.3036 7.73244 10H11.2676C11.6134 10.5978 12.2597 11 13 11C14.1046 11 15 10.1046 15 9C15 7.89543 14.1046 7 13 7C12.2597 7 11.6134 7.4022 11.2676 8H7.73244Z" fill="#71717A"/>
</svg>
