<svg width="24" height="24" viewBox="0 0 24 24" fill="none" xmlns="http://www.w3.org/2000/svg">
<path d="M3 5C3 3.89543 3.89543 3 5 3H15L21 9V19C21 20.1046 20.1046 21 19 21H5C3.89543 21 3 20.1046 3 19V5ZM14 5V10H19L14 5ZM7.91602 15.1523L7.21875 13.7344H6.04395L7.23633 15.8496L6.01172 18H7.19824L7.91602 16.5557L8.63379 18H9.81738L8.5957 15.8496L9.78516 13.7344H8.61328L7.91602 15.1523ZM11.5049 13.7344H10.1572V18H11.1855V17.0039L11.085 14.9639L12.1172 18H12.7969L13.8291 14.9639L13.7285 17.0039V18H14.7598V13.7344H13.4092L12.457 16.7021L11.5049 13.7344ZM18.2373 18V17.209H16.4473V13.7344H15.4189V18H18.2373Z" fill="#71717A"/>
</svg>
