<svg width="24" height="24" viewBox="0 0 24 24" fill="none" xmlns="http://www.w3.org/2000/svg">
<path d="M19.2727 4.72727C19.2727 6.2335 18.0517 7.45455 16.5455 7.45455C16.3757 7.45455 16.2096 7.43904 16.0484 7.40936L13.8042 11H16.7346C17.1335 9.98849 18.1195 9.27273 19.2727 9.27273C20.779 9.27273 22 10.4938 22 12C22 13.5062 20.779 14.7273 19.2727 14.7273C18.1195 14.7273 17.1335 14.0115 16.7346 13H13.8042L16.0484 16.5906C16.2096 16.561 16.3757 16.5455 16.5455 16.5455C18.0517 16.5455 19.2727 17.7665 19.2727 19.2727C19.2727 20.779 18.0517 22 16.5455 22C15.0392 22 13.8182 20.779 13.8182 19.2727C13.8182 18.6653 14.0168 18.1042 14.3526 17.6509L12.097 14.042L10.3928 17.4505C10.8268 17.9335 11.0909 18.5723 11.0909 19.2727C11.0909 20.779 9.86987 22 8.36364 22C6.85741 22 5.63636 20.779 5.63636 19.2727C5.63636 17.7665 6.85741 16.5455 8.36364 16.5455C8.44464 16.5455 8.52481 16.549 8.60402 16.5559L10.382 13H7.26538C6.86653 14.0115 5.88049 14.7273 4.72727 14.7273C3.22104 14.7273 2 13.5062 2 12C2 10.4938 3.22104 9.27273 4.72727 9.27273C5.88049 9.27273 6.86653 9.98849 7.26538 11H10.382L8.60401 7.4441C8.52481 7.45101 8.44464 7.45455 8.36364 7.45455C6.85741 7.45455 5.63636 6.2335 5.63636 4.72727C5.63636 3.22104 6.85741 2 8.36364 2C9.86987 2 11.0909 3.22104 11.0909 4.72727C11.0909 5.42775 10.8268 6.06654 10.3928 6.54953L12.097 9.95797L14.3526 6.34908C14.0168 5.89578 13.8182 5.33472 13.8182 4.72727C13.8182 3.22104 15.0392 2 16.5455 2C18.0517 2 19.2727 3.22104 19.2727 4.72727ZM20 12C20 11.5983 19.6744 11.2727 19.2727 11.2727C18.8711 11.2727 18.5455 11.5983 18.5455 12C18.5455 12.4017 18.8711 12.7273 19.2727 12.7273C19.6744 12.7273 20 12.4017 20 12ZM8.36364 5.45455C8.7653 5.45455 9.09091 5.12893 9.09091 4.72727C9.09091 4.32561 8.7653 4 8.36364 4C7.96198 4 7.63636 4.32561 7.63636 4.72727C7.63636 5.12893 7.96198 5.45455 8.36364 5.45455ZM9.09091 19.2727C9.09091 18.8711 8.7653 18.5455 8.36364 18.5455C7.96198 18.5455 7.63636 18.8711 7.63636 19.2727C7.63636 19.6744 7.96198 20 8.36364 20C8.7653 20 9.09091 19.6744 9.09091 19.2727Z" fill="#71717A"/>
</svg>
