<svg width="24" height="24" viewBox="0 0 24 24" fill="none" xmlns="http://www.w3.org/2000/svg">
<path d="M19.1039 8.90863C17.1961 8.25941 14.6742 7.90316 12.0047 7.90316H11.8336C12.5391 6.98909 13.2656 6.19925 13.9734 5.57816C14.5945 5.03441 15.1781 4.64769 15.6609 4.46019C15.9984 4.32894 16.275 4.30316 16.4203 4.38519C16.5774 4.47659 16.6969 4.76019 16.7461 5.16566C16.8164 5.73753 16.7461 6.51331 16.5422 7.40863L18.1875 7.78128C18.4359 6.68206 18.5156 5.73284 18.4195 4.95941C18.3375 4.28675 18.0703 3.38909 17.2617 2.92269C16.4859 2.47503 15.0938 2.35081 12.8602 4.30784C11.7914 5.243 10.6969 6.51566 9.67736 7.99456C8.99064 8.05081 8.32736 8.1305 7.6922 8.23362C7.57736 7.84222 7.48361 7.46253 7.41095 7.09925C7.24923 6.28831 7.20704 5.58988 7.28673 5.07894C7.34298 4.72269 7.45548 4.46956 7.60079 4.38519C7.83985 4.24691 8.69064 4.34534 10.1906 5.70706L11.325 4.45784C10.5164 3.72425 9.75236 3.20628 9.05157 2.918C8.4422 2.66722 7.54923 2.46566 6.75704 2.92269C5.98126 3.37034 5.17736 4.51644 5.75626 7.42737C5.82892 7.79769 5.92267 8.17972 6.03517 8.57581C5.63907 8.67659 5.26173 8.78675 4.90548 8.90863C2.09532 9.86488 1.5047 11.1328 1.5047 12.0282C1.5047 12.9492 2.13282 13.6242 2.66251 14.0274C3.26954 14.4914 4.11095 14.8969 5.16329 15.2297L5.67423 13.6219C3.71251 13.0008 3.19454 12.3071 3.19454 12.0282C3.19454 11.8618 3.35626 11.6344 3.63751 11.4094C4.04064 11.086 4.66876 10.7742 5.44923 10.5071C5.80079 10.3875 6.17579 10.2797 6.56954 10.1836C6.79689 10.786 7.06173 11.4024 7.35704 12.0258C6.94454 12.8977 6.59298 13.7625 6.31173 14.5899C5.81954 16.0477 5.56173 17.3766 5.56642 18.4289C5.57111 19.3407 5.78204 20.5453 6.76407 21.1125C7.10861 21.3117 7.46954 21.3844 7.82111 21.3844C8.28282 21.3844 8.72111 21.2555 9.07032 21.1125C9.77579 20.8219 10.5445 20.2969 11.3555 19.5563L10.2188 18.3094C8.7047 19.6899 7.84923 19.7907 7.60782 19.65C7.43907 19.5516 7.25861 19.1789 7.25392 18.4196C7.24923 17.55 7.47657 16.411 7.91017 15.1266C8.04142 14.7375 8.18907 14.3414 8.35548 13.9383C8.38361 13.9852 8.40939 14.0321 8.43751 14.0813C9.33048 15.6258 10.3477 17.0649 11.3813 18.2391C12.3984 19.3946 13.4203 20.2828 14.3344 20.8055C14.8524 21.1032 15.5274 21.3844 16.2047 21.3844C16.5609 21.3844 16.9195 21.3071 17.2594 21.1102C18.2414 20.543 18.4524 19.336 18.457 18.4242C18.4617 17.3719 18.2039 16.043 17.7117 14.5828C17.4609 13.8375 17.1492 13.0594 16.7883 12.2742L15.2531 12.9844C15.5906 13.7157 15.8789 14.4352 16.1109 15.1266C16.5445 16.411 16.7719 17.55 16.7672 18.4219C16.7649 19.1813 16.582 19.5563 16.4133 19.6524C16.2445 19.7508 15.8297 19.7203 15.1711 19.343C14.4164 18.9117 13.5422 18.1453 12.6469 17.1258C11.6859 16.0336 10.7344 14.6907 9.89767 13.2399C9.66329 12.8344 9.44298 12.4313 9.23673 12.0258C9.44532 11.6157 9.66798 11.2078 9.90236 10.8024C10.1344 10.3992 10.3734 10.0078 10.6195 9.62816C11.0742 9.60472 11.5359 9.593 12.0047 9.593C14.4938 9.593 16.8234 9.91878 18.5602 10.5094C19.343 10.7742 19.9688 11.086 20.3719 11.4117C20.6531 11.6391 20.8149 11.8641 20.8149 12.0305C20.8149 12.211 20.6297 12.4547 20.3063 12.7008C19.8516 13.0453 19.1508 13.3711 18.2813 13.643L18.7852 15.2532C19.8539 14.9203 20.7094 14.5125 21.3258 14.0461C21.8625 13.6407 22.5024 12.961 22.5024 12.0305C22.5047 11.1328 21.9141 9.86488 19.1039 8.90863ZM8.43986 9.95628C8.40939 10.0078 8.38126 10.0594 8.35079 10.111C8.31564 10.0266 8.28282 9.94222 8.24767 9.85784C8.33673 9.84378 8.42814 9.83206 8.51954 9.82034C8.49376 9.86253 8.46798 9.90941 8.43986 9.95628Z" fill="#71717A"/>
<path d="M10.5164 12.3352C10.5164 12.8946 10.7387 13.4312 11.1342 13.8268C11.5298 14.2223 12.0664 14.4446 12.6258 14.4446C13.1852 14.4446 13.7218 14.2223 14.1173 13.8268C14.5129 13.4312 14.7352 12.8946 14.7352 12.3352C14.7352 11.7758 14.5129 11.2392 14.1173 10.8437C13.7218 10.4481 13.1852 10.2258 12.6258 10.2258C12.0664 10.2258 11.5298 10.4481 11.1342 10.8437C10.7387 11.2392 10.5164 11.7758 10.5164 12.3352Z" fill="#71717A"/>
</svg>
