<svg width="24" height="24" viewBox="0 0 24 24" fill="none" xmlns="http://www.w3.org/2000/svg">
<path d="M14.5 6.5C14.5 7.52516 13.883 8.4062 13 8.79198V11.5H18C19.1046 11.5 20 12.3954 20 13.5V16.2676C20.5978 16.6134 21 17.2597 21 18C21 19.1046 20.1046 20 19 20C17.8954 20 17 19.1046 17 18C17 17.2597 17.4022 16.6134 18 16.2676V13.5H13V16.2676C13.5978 16.6134 14 17.2597 14 18C14 19.1046 13.1046 20 12 20C10.8954 20 10 19.1046 10 18C10 17.2597 10.4022 16.6134 11 16.2676V13.5H6V16.2676C6.5978 16.6134 7 17.2597 7 18C7 19.1046 6.10457 20 5 20C3.89543 20 3 19.1046 3 18C3 17.2597 3.4022 16.6134 4 16.2676V13.5C4 12.3954 4.89543 11.5 6 11.5H11V8.79198C10.117 8.4062 9.5 7.52516 9.5 6.5C9.5 5.11929 10.6193 4 12 4C13.3807 4 14.5 5.11929 14.5 6.5Z" fill="#71717A"/>
</svg>
