<svg width="24" height="24" viewBox="0 0 24 24" fill="none" xmlns="http://www.w3.org/2000/svg">
<path d="M18 6C18 6.56013 17.8465 7.08441 17.5793 7.53305L19.6591 10.0289C19.7699 10.0099 19.8838 10 20 10C21.1046 10 22 10.8954 22 12C22 13.1046 21.1046 14 20 14C18.8954 14 18 13.1046 18 12C18 11.7572 18.0433 11.5244 18.1225 11.3091L16.043 8.81371C15.7182 8.93418 15.3668 9 15 9C14.9447 9 14.8898 8.9985 14.8352 8.99555L12.0109 15.7737C12.6183 16.3227 13 17.1168 13 18C13 19.6569 11.6569 21 10 21C8.34315 21 7 19.6569 7 18C7 17.5369 7.10495 17.0982 7.29237 16.7066L4.51804 13.9323C4.35282 13.9764 4.17916 14 4 14C2.89543 14 2 13.1046 2 12C2 10.8954 2.89543 10 4 10C5.10457 10 6 10.8954 6 12C6 12.1792 5.97644 12.3528 5.93226 12.518L8.70658 15.2924C9.09822 15.105 9.53685 15 10 15C10.0553 15 10.1103 15.0015 10.1648 15.0045L12.9891 8.22626C12.3817 7.67727 12 6.88321 12 6C12 4.34315 13.3431 3 15 3C16.6569 3 18 4.34315 18 6Z" fill="#71717A"/>
</svg>
