<svg width="24" height="24" viewBox="0 0 24 24" fill="none" xmlns="http://www.w3.org/2000/svg">
<path d="M7.35352 16.5527H8.02734C8.36914 16.5527 8.66309 16.4961 8.90918 16.3828C9.15723 16.2676 9.34766 16.1074 9.48047 15.9023C9.61328 15.6973 9.67969 15.457 9.67969 15.1816C9.67969 14.9023 9.61328 14.6543 9.48047 14.4375C9.34766 14.2188 9.15723 14.0469 8.90918 13.9219C8.66309 13.7969 8.36914 13.7344 8.02734 13.7344H6.3252V18H7.35352V16.5527ZM7.35352 15.7588V14.5283H8.02734C8.17188 14.5283 8.28906 14.5596 8.37891 14.6221C8.46875 14.6826 8.53418 14.7627 8.5752 14.8623C8.61816 14.9619 8.63965 15.0703 8.63965 15.1875C8.63965 15.2969 8.61816 15.3955 8.5752 15.4834C8.53418 15.5693 8.46875 15.6367 8.37891 15.6855C8.28906 15.7344 8.17188 15.7588 8.02734 15.7588H7.35352Z" fill="#71717A"/>
<path d="M13.7959 18V13.7344H12.7705V16.3887L11.2617 13.7344H10.2334V18H11.2617V15.3457L12.7705 18H13.7959Z" fill="#71717A"/>
<path d="M17.9355 17.4727V15.7207H16.1924V16.4268H16.9072V17.0889C16.8799 17.1143 16.8398 17.1416 16.7871 17.1709C16.7363 17.1982 16.6719 17.2217 16.5938 17.2412C16.5156 17.2588 16.4219 17.2676 16.3125 17.2676C16.1562 17.2676 16.0205 17.2412 15.9053 17.1885C15.792 17.1338 15.6982 17.0537 15.624 16.9482C15.5518 16.8408 15.4971 16.707 15.46 16.5469C15.4248 16.3867 15.4072 16.2002 15.4072 15.9873V15.7441C15.4072 15.5293 15.4258 15.3418 15.4629 15.1816C15.502 15.0215 15.5566 14.8887 15.627 14.7832C15.6973 14.6758 15.7822 14.5957 15.8818 14.543C15.9834 14.4902 16.0957 14.4639 16.2188 14.4639C16.377 14.4639 16.5059 14.4902 16.6055 14.543C16.7051 14.5938 16.7812 14.6689 16.834 14.7686C16.8887 14.8662 16.9258 14.9854 16.9453 15.126H17.9326C17.9053 14.8408 17.8281 14.5898 17.7012 14.373C17.5742 14.1543 17.3877 13.9834 17.1416 13.8604C16.8955 13.7354 16.5762 13.6729 16.1836 13.6729C15.918 13.6729 15.6738 13.7188 15.4512 13.8105C15.2305 13.9023 15.0381 14.0371 14.874 14.2148C14.7119 14.3906 14.5859 14.6074 14.4961 14.8652C14.4062 15.123 14.3613 15.418 14.3613 15.75V15.9873C14.3613 16.3193 14.4053 16.6143 14.4932 16.8721C14.583 17.1279 14.71 17.3447 14.874 17.5225C15.04 17.6982 15.2383 17.832 15.4688 17.9238C15.6992 18.0137 15.9561 18.0586 16.2393 18.0586C16.5459 18.0586 16.8125 18.0264 17.0391 17.9619C17.2656 17.8975 17.4531 17.8203 17.6016 17.7305C17.752 17.6387 17.8633 17.5527 17.9355 17.4727Z" fill="#71717A"/>
<path d="M21 19V9L15 3H5C3.89543 3 3 3.89543 3 5V19C3 20.1046 3.89543 21 5 21H19C20.1046 21 21 20.1046 21 19ZM19 19H5L5 5L12 5V12H19V19ZM19 9.82843V10H14V5H14.1716L19 9.82843Z" fill="#71717A"/>
</svg>
