<svg width="24" height="24" viewBox="0 0 24 24" fill="none" xmlns="http://www.w3.org/2000/svg">
<path d="M11.8976 8.86342C11.6142 8.95217 11.3127 9 11 9C9.34315 9 8 7.65685 8 6C8 4.34315 9.34315 3 11 3C12.3062 3 13.4175 3.83481 13.8293 5H18.2676C18.6134 4.4022 19.2597 4 20 4C21.1046 4 22 4.89543 22 6C22 6.74028 21.5978 7.38663 21 7.73244V16.2676C21.5978 16.6134 22 17.2597 22 18C22 19.1046 21.1046 20 20 20C18.8954 20 18 19.1046 18 18C18 17.7209 18.0572 17.4552 18.1604 17.2139L11.8976 8.86342ZM18.2676 7H13.8293C13.7459 7.23595 13.6338 7.45835 13.4973 7.66301L19 15V7.73244C18.6964 7.5568 18.4432 7.30363 18.2676 7Z" fill="#71717A"/>
<path d="M5.73671 6.99258C5.90423 6.70009 6 6.36123 6 6C6 4.89543 5.10457 4 4 4C2.89543 4 2 4.89543 2 6C2 6.74028 2.4022 7.38663 3 7.73244V16.2676C2.4022 16.6134 2 17.2597 2 18C2 19.1046 2.89543 20 4 20C4.74028 20 5.38663 19.5978 5.73244 19H8.17071C8.58254 20.1652 9.69378 21 11 21C12.6569 21 14 19.6569 14 18C14 16.3431 12.6569 15 11 15C10.808 15 10.6203 15.018 10.4383 15.0525L5.73671 6.99258ZM8.71103 16.0607C8.47783 16.3356 8.29329 16.6532 8.17071 17H5.73244C5.5568 16.6964 5.30363 16.4432 5 16.2676V9.69892L8.71103 16.0607Z" fill="#71717A"/>
</svg>
