<svg width="24" height="24" viewBox="0 0 24 24" fill="none" xmlns="http://www.w3.org/2000/svg">
<path d="M22.0001 18V22H18.0001V19H15.0001V16H12.0001L9.74012 13.74C9.19012 13.91 8.61012 14 8.00012 14C6.40882 14 4.8827 13.3679 3.75748 12.2426C2.63226 11.1174 2.00012 9.5913 2.00012 8C2.00012 6.4087 2.63226 4.88258 3.75748 3.75736C4.8827 2.63214 6.40882 2 8.00012 2C9.59142 2 11.1175 2.63214 12.2428 3.75736C13.368 4.88258 14.0001 6.4087 14.0001 8C14.0001 8.61 13.9101 9.19 13.7401 9.74L22.0001 18ZM7.00012 5C6.46969 5 5.96098 5.21071 5.58591 5.58579C5.21084 5.96086 5.00012 6.46957 5.00012 7C5.00012 7.53043 5.21084 8.03914 5.58591 8.41421C5.96098 8.78929 6.46969 9 7.00012 9C7.53056 9 8.03926 8.78929 8.41434 8.41421C8.78941 8.03914 9.00012 7.53043 9.00012 7C9.00012 6.46957 8.78941 5.96086 8.41434 5.58579C8.03926 5.21071 7.53056 5 7.00012 5Z" fill="#71717A"/>
</svg>
