<svg width="24" height="24" viewBox="0 0 24 24" fill="none" xmlns="http://www.w3.org/2000/svg">
<path d="M15.9 18.45C17.25 18.45 18.35 17.35 18.35 16C18.35 14.65 17.25 13.55 15.9 13.55C14.54 13.55 13.45 14.65 13.45 16C13.45 17.35 14.54 18.45 15.9 18.45ZM21.1 16.68L22.58 17.84C22.71 17.95 22.75 18.13 22.66 18.29L21.26 20.71C21.17 20.86 21 20.92 20.83 20.86L19.09 20.16C18.73 20.44 18.33 20.67 17.91 20.85L17.64 22.7C17.62 22.87 17.47 23 17.3 23H14.5C14.32 23 14.18 22.87 14.15 22.7L13.89 20.85C13.46 20.67 13.07 20.44 12.71 20.16L10.96 20.86C10.81 20.92 10.62 20.86 10.54 20.71L9.14 18.29C9.04999 18.13 9.08999 17.95 9.22 17.84L10.7 16.68L10.65 16L10.7 15.31L9.22 14.16C9.08999 14.05 9.04999 13.86 9.14 13.71L10.54 11.29C10.62 11.13 10.81 11.07 10.96 11.13L12.71 11.84C13.07 11.56 13.46 11.32 13.89 11.15L14.15 9.29C14.18 9.13 14.32 9 14.5 9H17.3C17.47 9 17.62 9.13 17.64 9.29L17.91 11.15C18.33 11.32 18.73 11.56 19.09 11.84L20.83 11.13C21 11.07 21.17 11.13 21.26 11.29L22.66 13.71C22.75 13.86 22.71 14.05 22.58 14.16L21.1 15.31L21.15 16L21.1 16.68ZM6.68999 8.07C7.55999 8.07 8.25999 7.37 8.25999 6.5C8.25999 5.63 7.55999 4.92 6.68999 4.92C6.27095 4.92 5.86907 5.08646 5.57277 5.38277C5.27646 5.67908 5.10999 6.08096 5.10999 6.5C5.10999 7.37 5.81999 8.07 6.68999 8.07ZM10.03 6.94L11 7.68C11.07 7.75 11.09 7.87 11.03 7.97L10.13 9.53C10.08 9.63 9.95999 9.67 9.85999 9.63L8.73999 9.18L7.99999 9.62L7.80999 10.81C7.78999 10.92 7.7 11 7.58999 11H5.78999C5.66999 11 5.57999 10.92 5.55999 10.81L5.39999 9.62L4.63999 9.18L3.49999 9.63C3.40999 9.67 3.29999 9.63 3.23999 9.53L2.33999 7.97C2.27999 7.87 2.30999 7.75 2.38999 7.68L3.33999 6.94L3.30999 6.5L3.33999 6.06L2.38999 5.32C2.30999 5.25 2.27999 5.13 2.33999 5.03L3.23999 3.47C3.29999 3.37 3.40999 3.33 3.49999 3.37L4.62999 3.82L5.39999 3.38L5.55999 2.19C5.57999 2.08 5.66999 2 5.78999 2H7.58999C7.7 2 7.78999 2.08 7.80999 2.19L7.99999 3.38L8.73999 3.82L9.85999 3.37C9.95999 3.33 10.08 3.37 10.13 3.47L11.03 5.03C11.09 5.13 11.07 5.25 11 5.32L10.03 6.06L10.06 6.5L10.03 6.94Z" fill="#71717A"/>
</svg>
