<svg width="24" height="24" viewBox="0 0 24 24" fill="none" xmlns="http://www.w3.org/2000/svg">
<path d="M12.4464 3.27357C11.0821 4.35286 10.2143 6.01786 10.2143 7.89286C10.2143 11.1471 12.8529 13.7857 16.1071 13.7857C17.98 13.7857 19.6486 12.9121 20.7279 11.55C20.7279 11.55 20.9243 11.2857 21.2857 11.2857C21.68 11.2857 22 11.6057 22 12C21.9971 17.5257 17.5207 22 12 22C6.47714 22 2 17.5229 2 12C2 6.47714 6.47714 2 12 2C12.395 2.00071 12.7143 2.32 12.7143 2.71429C12.7143 3.08786 12.4464 3.27357 12.4464 3.27357Z" fill="#71717A"/>
</svg>
