<svg width="24" height="24" viewBox="0 0 24 24" fill="none" xmlns="http://www.w3.org/2000/svg">
<path d="M21.0477 4C21.5736 4 22 4.39778 22 4.88889V19.1111C22 19.6022 21.5736 20 21.0477 20H2.95227C2.42636 20 2 19.6022 2 19.1111V4.88889C2 4.39778 2.42636 4 2.95227 4H21.0477ZM20.1818 10.2222H3.81818V18.2222H20.1818V10.2222ZM10.6364 14.6667C10.7569 14.6667 10.8725 14.7135 10.9578 14.7968C11.043 14.8802 11.0909 14.9932 11.0909 15.1111V16C11.0909 16.1179 11.043 16.2309 10.9578 16.3143C10.8725 16.3976 10.7569 16.4444 10.6364 16.4444H6.09091C6.03122 16.4444 5.97211 16.4329 5.91696 16.4106C5.86181 16.3883 5.81171 16.3555 5.7695 16.3143C5.72729 16.273 5.69381 16.224 5.67096 16.1701C5.64812 16.1162 5.63636 16.0584 5.63636 16V15.1111C5.63636 15.0527 5.64812 14.995 5.67096 14.941C5.69381 14.8871 5.72729 14.8381 5.7695 14.7968C5.81171 14.7556 5.86181 14.7228 5.91696 14.7005C5.97211 14.6782 6.03122 14.6667 6.09091 14.6667H10.6364ZM20.1818 5.77778H3.81818V8.44444H20.1818V5.77778Z" fill="#71717A"/>
</svg>
