<svg width="24" height="24" viewBox="0 0 24 24" fill="none" xmlns="http://www.w3.org/2000/svg">
<path d="M2 8C2 7.44772 2.44772 7 3 7H21C21.5523 7 22 7.44772 22 8V16C22 16.5523 21.5523 17 21 17H3C2.44772 17 2 16.5523 2 16V8ZM5.16625 10.0375V14.5H5.8975V11.2375H5.9225L8.15375 14.5H8.86625V10.0375H8.12875V13.2562H8.10375L5.8975 10.0375H5.16625ZM9.74125 10.0375V14.5H13.0662V13.875H10.4712V12.525H12.8088V11.9H10.4712V10.6625H12.9587V10.0375H9.73875H9.74125ZM13.3475 10.0375L14.6275 14.5H15.4087L16.2837 11.1437H16.3087L17.1787 14.5H17.9537L19.2413 10.0375H18.4163L17.5787 13.4313H17.5537L16.6725 10.0375H15.9163L15.035 13.4313H15.01L14.1725 10.0375H13.3475Z" fill="#71717A"/>
</svg>
