<svg width="24" height="24" viewBox="0 0 24 24" fill="none" xmlns="http://www.w3.org/2000/svg">
<path d="M13.6719 15.5303V16.248C13.6719 16.4434 13.6572 16.6104 13.6279 16.749C13.5986 16.8877 13.5557 17.001 13.499 17.0889C13.4424 17.1768 13.3711 17.2422 13.2852 17.2852C13.2012 17.3262 13.1045 17.3467 12.9951 17.3467C12.8838 17.3467 12.7852 17.3262 12.6992 17.2852C12.6152 17.2422 12.5439 17.1768 12.4854 17.0889C12.4268 17.001 12.3828 16.8877 12.3535 16.749C12.3242 16.6104 12.3096 16.4434 12.3096 16.248V15.5303C12.3096 15.3271 12.3232 15.1543 12.3506 15.0117C12.3799 14.8672 12.4229 14.749 12.4795 14.6572C12.5381 14.5654 12.6094 14.498 12.6934 14.4551C12.7793 14.4121 12.8779 14.3906 12.9893 14.3906C13.1006 14.3906 13.1982 14.4121 13.2822 14.4551C13.3662 14.498 13.4375 14.5654 13.4961 14.6572C13.5547 14.749 13.5986 14.8672 13.6279 15.0117C13.6572 15.1543 13.6719 15.3271 13.6719 15.5303Z" fill="#71717A"/>
<path d="M3 5C3 3.89543 3.89543 3 5 3H15L21 9V19C21 20.1046 20.1046 21 19 21H5C3.89543 21 3 20.1046 3 19V5ZM14 5V10H19L14 5ZM6.74902 13.7344V16.6846C6.74902 16.8252 6.73438 16.9453 6.70508 17.0449C6.67578 17.1426 6.63281 17.2178 6.57617 17.2705C6.52148 17.3232 6.4541 17.3496 6.37402 17.3496C6.2998 17.3496 6.2334 17.3301 6.1748 17.291C6.11816 17.252 6.07422 17.1885 6.04297 17.1006C6.01172 17.0127 5.99609 16.8926 5.99609 16.7402H5.13477C5.13477 17.041 5.18848 17.2891 5.2959 17.4844C5.40332 17.6777 5.5498 17.8223 5.73535 17.918C5.92285 18.0117 6.13574 18.0586 6.37402 18.0586C6.60645 18.0586 6.81543 18.0039 7.00098 17.8945C7.18652 17.7852 7.33301 17.6279 7.44043 17.4229C7.5498 17.2158 7.60449 16.9707 7.60449 16.6875V13.7344H6.74902ZM10.0713 16.6699C10.085 16.7324 10.0918 16.8018 10.0918 16.8779C10.0918 16.9697 10.0771 17.0518 10.0479 17.124C10.0186 17.1963 9.96973 17.2539 9.90137 17.2969C9.83496 17.3398 9.74512 17.3613 9.63184 17.3613C9.53223 17.3613 9.44336 17.3486 9.36523 17.3232C9.28906 17.2959 9.22461 17.2559 9.17188 17.2031C9.11914 17.1484 9.08008 17.0762 9.05469 16.9863C9.0293 16.8945 9.0166 16.7842 9.0166 16.6553H8.1582C8.1582 16.8975 8.19629 17.1074 8.27246 17.2852C8.34863 17.4609 8.45312 17.6064 8.58594 17.7217C8.7207 17.835 8.87598 17.9199 9.05176 17.9766C9.22754 18.0312 9.41406 18.0586 9.61133 18.0586C9.81445 18.0586 9.99805 18.0303 10.1621 17.9736C10.3281 17.917 10.4697 17.8369 10.5869 17.7334C10.7041 17.6279 10.793 17.5029 10.8535 17.3584C10.916 17.2119 10.9473 17.0498 10.9473 16.8721C10.9473 16.6924 10.9219 16.5322 10.8711 16.3916C10.8203 16.251 10.7451 16.125 10.6455 16.0137C10.5459 15.9004 10.4219 15.7988 10.2734 15.709C10.125 15.6172 9.9541 15.5332 9.76074 15.457C9.66113 15.418 9.56934 15.3779 9.48535 15.3369C9.40332 15.2959 9.33203 15.2539 9.27148 15.2109C9.21094 15.166 9.16309 15.1162 9.12793 15.0615C9.09473 15.0049 9.07812 14.9414 9.07812 14.8711C9.07812 14.7773 9.09473 14.6934 9.12793 14.6191C9.16309 14.543 9.21582 14.4834 9.28613 14.4404C9.3584 14.3955 9.44922 14.373 9.55859 14.373C9.67578 14.373 9.77148 14.3994 9.8457 14.4521C9.91992 14.5049 9.97363 14.5781 10.0068 14.6719C10.042 14.7637 10.0596 14.8701 10.0596 14.9912H10.915C10.915 14.7354 10.8594 14.5088 10.748 14.3115C10.6387 14.1143 10.4834 13.959 10.2822 13.8457C10.083 13.7324 9.84668 13.6758 9.57324 13.6758C9.37207 13.6758 9.18945 13.7041 9.02539 13.7607C8.86328 13.8174 8.72168 13.8984 8.60059 14.0039C8.47949 14.1074 8.38574 14.2324 8.31934 14.3789C8.25488 14.5254 8.22266 14.6885 8.22266 14.8682C8.22266 15.0518 8.25684 15.2119 8.3252 15.3486C8.39551 15.4834 8.49023 15.6006 8.60938 15.7002C8.72852 15.7998 8.8623 15.8877 9.01074 15.9639C9.15918 16.0381 9.3125 16.1084 9.4707 16.1748C9.60352 16.2314 9.71094 16.2861 9.79297 16.3389C9.87695 16.3916 9.94043 16.4443 9.9834 16.4971C10.0283 16.5498 10.0576 16.6074 10.0713 16.6699ZM14.5244 16.248V15.5361C14.5244 15.2275 14.4873 14.958 14.4131 14.7275C14.3408 14.4951 14.2363 14.3018 14.0996 14.1475C13.9629 13.9912 13.8008 13.874 13.6133 13.7959C13.4258 13.7158 13.2178 13.6758 12.9893 13.6758C12.7607 13.6758 12.5527 13.7158 12.3652 13.7959C12.1777 13.874 12.0156 13.9912 11.8789 14.1475C11.7422 14.3018 11.6377 14.4951 11.5654 14.7275C11.4932 14.958 11.457 15.2275 11.457 15.5361V16.248C11.457 16.5488 11.4941 16.8125 11.5684 17.0391C11.6426 17.2637 11.7471 17.4521 11.8818 17.6045C12.0186 17.7549 12.1807 17.8682 12.3682 17.9443C12.5576 18.0205 12.7666 18.0586 12.9951 18.0586C13.2236 18.0586 13.4316 18.0205 13.6191 17.9443C13.8086 17.8682 13.9697 17.7549 14.1025 17.6045C14.2373 17.4521 14.3408 17.2637 14.4131 17.0391C14.4873 16.8125 14.5244 16.5488 14.5244 16.248ZM18.1309 18V13.7344H17.3164V16.4326L15.9658 13.7344H15.1484V18H15.9629V15.3311L17.3018 18H18.1309Z" fill="#71717A"/>
</svg>
