<svg width="24" height="24" viewBox="0 0 24 24" fill="none" xmlns="http://www.w3.org/2000/svg">
<path d="M3.00006 5.70012C3.00006 6.838 3.70395 7.81148 4.70006 8.20888L4.70006 15.7914C3.70395 16.1888 3.00006 17.1622 3.00006 18.3001C3.00006 19.7913 4.20889 21.0001 5.70006 21.0001C7.19123 21.0001 8.40006 19.7913 8.40006 18.3001C8.40006 17.1622 7.69617 16.1888 6.70006 15.7914L6.70006 8.20888C6.72249 8.19994 6.74477 8.1907 6.76689 8.18117L14.019 15.4333C13.8781 15.7605 13.8001 16.1212 13.8001 16.5001C13.8001 17.9913 15.0089 19.2001 16.5001 19.2001C17.9912 19.2001 19.2001 17.9913 19.2001 16.5001C19.2001 15.009 17.9912 13.8001 16.5001 13.8001C16.1212 13.8001 15.7605 13.8782 15.4332 14.0191L8.18111 6.76696C8.19063 6.74483 8.19987 6.72255 8.20882 6.70012L15.7913 6.70012C16.1887 7.69623 17.1622 8.40012 18.3001 8.40012C19.7912 8.40012 21.0001 7.19129 21.0001 5.70012C21.0001 4.20895 19.7912 3.00012 18.3001 3.00012C17.1622 3.00012 16.1887 3.70401 15.7913 4.70012L8.20882 4.70012C7.81142 3.70401 6.83794 3.00012 5.70006 3.00012C4.20889 3.00012 3.00006 4.20895 3.00006 5.70012ZM17.2001 16.5001C17.2001 16.8867 16.8867 17.2001 16.5001 17.2001C16.1135 17.2001 15.8001 16.8867 15.8001 16.5001C15.8001 16.1135 16.1135 15.8001 16.5001 15.8001C16.8867 15.8001 17.2001 16.1135 17.2001 16.5001ZM18.3001 6.40012C17.9135 6.40012 17.6001 6.08672 17.6001 5.70012C17.6001 5.31352 17.9135 5.00012 18.3001 5.00012C18.6867 5.00012 19.0001 5.31352 19.0001 5.70012C19.0001 6.08672 18.6867 6.40012 18.3001 6.40012ZM6.40006 18.3001C6.40006 18.6867 6.08666 19.0001 5.70006 19.0001C5.31346 19.0001 5.00006 18.6867 5.00006 18.3001C5.00006 17.9135 5.31346 17.6001 5.70006 17.6001C6.08666 17.6001 6.40006 17.9135 6.40006 18.3001Z" fill="#71717A"/>
</svg>
