<svg width="24" height="24" viewBox="0 0 24 24" fill="none" xmlns="http://www.w3.org/2000/svg">
<path d="M5 2H7V4H5C4.44772 4 4 4.44772 4 5V7H2V5C2 3.34315 3.34315 2 5 2Z" fill="#71717A"/>
<path d="M17 2V4H19C19.5523 4 20 4.44772 20 5V7H22V5C22 3.34315 20.6569 2 19 2H17Z" fill="#71717A"/>
<path d="M19 20H17V22H19C20.6569 22 22 20.6569 22 19V17H20V19C20 19.5523 19.5523 20 19 20Z" fill="#71717A"/>
<path d="M4 19V17H2V19C2 20.6569 3.34315 22 5 22H7V20H5C4.44772 20 4 19.5523 4 19Z" fill="#71717A"/>
<path d="M7 13C8.10457 13 9 12.1046 9 11C9 9.89543 8.10457 9 7 9C5.89543 9 5 9.89543 5 11C5 12.1046 5.89543 13 7 13Z" fill="#71717A"/>
<path d="M14 16.5C14 17.8807 12.8807 19 11.5 19C10.1193 19 9 17.8807 9 16.5C9 15.1193 10.1193 14 11.5 14C12.8807 14 14 15.1193 14 16.5Z" fill="#71717A"/>
<path d="M15.5 13C17.433 13 19 11.433 19 9.5C19 7.567 17.433 6 15.5 6C13.567 6 12 7.567 12 9.5C12 11.433 13.567 13 15.5 13Z" fill="#71717A"/>
</svg>
