<svg width="24" height="24" viewBox="0 0 24 24" fill="none" xmlns="http://www.w3.org/2000/svg">
<g clip-path="url(#clip0_1731_1343)">
<path d="M11.6425 11.5942H2C2.00033 12.166 2.11343 12.7321 2.33283 13.2601C2.55223 13.7882 2.87362 14.2677 3.2786 14.6714C3.68359 15.0751 4.16421 15.3949 4.69296 15.6126C5.22171 15.8303 5.7882 15.9415 6.36 15.94H8.135V17.6542C8.135 18.8065 8.59263 19.9116 9.40728 20.7265C10.2219 21.5415 11.3269 21.9996 12.4792 22V12.4317C12.4792 12.2095 12.3909 11.9965 12.2339 11.8395C12.0768 11.6824 11.8638 11.5942 11.6417 11.5942H11.6425ZM16.4117 6.7975H6.78C6.78022 7.94994 7.23818 9.05511 8.05316 9.86993C8.86814 10.6848 9.97339 11.1425 11.1258 11.1425H12.9V12.8575C12.9009 14.0097 13.3591 15.1145 14.1739 15.9292C14.9887 16.7439 16.0936 17.2018 17.2458 17.2025V7.63167C17.2458 7.52212 17.2243 7.41365 17.1823 7.31245C17.1404 7.21124 17.079 7.11928 17.0015 7.04182C16.9241 6.96436 16.8321 6.90292 16.7309 6.861C16.6297 6.81908 16.5212 6.7975 16.4117 6.7975ZM21.1775 2H11.5458C11.5458 3.15259 12.0037 4.25797 12.8187 5.07297C13.6337 5.88797 14.7391 6.34583 15.8917 6.34583H17.6658V8.06C17.6667 9.20999 18.1234 10.3128 18.9357 11.1267C19.7481 11.9406 20.85 12.3994 22 12.4025V2.8375C22.0009 2.6177 21.915 2.40642 21.761 2.24959C21.607 2.09277 21.3973 2.00307 21.1775 2Z" fill="#71717A"/>
</g>
<defs>
<clipPath id="clip0_1731_1343">
<rect width="20" height="20" fill="white" transform="translate(2 2)"/>
</clipPath>
</defs>
</svg>
