<svg width="24" height="24" viewBox="0 0 24 24" fill="none" xmlns="http://www.w3.org/2000/svg">
<path d="M14.1523 16.6387C14.6618 16.2395 15.3026 16 16 16C17.6569 16 19 17.3431 19 19C19 20.6569 17.6569 22 16 22C14.3431 22 13 20.6569 13 19C13 18.7678 13.0282 18.5422 13.0781 18.3252L8.16504 15.1982C8.63965 14.7285 9.00929 14.1536 9.23828 13.5117L14.1523 16.6387ZM5 9C6.65685 9 8 10.3431 8 12C8 13.6569 6.65685 15 5 15C3.34315 15 2 13.6569 2 12C2 10.3431 3.34315 9 5 9ZM20 9C21.6569 9 23 10.3431 23 12C23 13.6569 21.6569 15 20 15C18.6941 15 17.5859 14.1647 17.1738 13H9.3877C9.46069 12.6784 9.49999 12.3437 9.5 12C9.49999 11.6563 9.46069 11.3216 9.3877 11H17.1738C17.5859 9.83532 18.6941 9 20 9ZM16 2C17.6569 2 19 3.34315 19 5C19 6.65685 17.6569 8 16 8C15.3023 8 14.6619 7.75979 14.1523 7.36035L9.23828 10.4873C9.00919 9.84552 8.63971 9.27041 8.16504 8.80078L13.0781 5.67285C13.0285 5.45639 13 5.23152 13 5C13 3.34315 14.3431 2 16 2Z" fill="#71717A"/>
</svg>
