<svg width="24" height="24" viewBox="0 0 24 24" fill="none" xmlns="http://www.w3.org/2000/svg">
<path d="M5 2H7V4H5C4.44772 4 4 4.44772 4 5V7H2V5C2 3.34315 3.34315 2 5 2Z" fill="#71717A"/>
<path d="M17 2V4H19C19.5523 4 20 4.44772 20 5V7H22V5C22 3.34315 20.6569 2 19 2H17Z" fill="#71717A"/>
<path d="M19 20H17V22H19C20.6569 22 22 20.6569 22 19V17H20V19C20 19.5523 19.5523 20 19 20Z" fill="#71717A"/>
<path d="M4 19V17H2V19C2 20.6569 3.34315 22 5 22H7V20H5C4.44772 20 4 19.5523 4 19Z" fill="#71717A"/>
<path d="M8.90383 18.0962C9.47656 17.5235 9.65334 16.7047 9.43415 15.9801L15.9801 9.43414C16.7047 9.65333 17.5235 9.47655 18.0962 8.90381C18.9246 8.07538 18.9246 6.73223 18.0962 5.9038C17.2678 5.07537 15.9246 5.07537 15.0962 5.9038C14.5235 6.47655 14.3467 7.29532 14.5659 8.01993L8.01994 14.5659C7.29533 14.3467 6.47656 14.5234 5.90381 15.0962C5.07538 15.9246 5.07538 17.2678 5.90381 18.0962C6.73224 18.9246 8.0754 18.9246 8.90383 18.0962Z" fill="#71717A"/>
<path d="M8.42718 9.71013C8.5905 9.47765 8.78457 9.24497 9.01479 9.01475C9.24501 8.78453 9.47769 8.59046 9.71017 8.42714L8.56047 6.79062C8.23122 7.02193 7.91033 7.29078 7.60057 7.60054C7.29082 7.91029 7.02196 8.23118 6.79066 8.56043L8.42718 9.71013Z" fill="#71717A"/>
<path d="M7.64664 13.1256C7.57247 12.5468 7.57604 11.9322 7.71307 11.3182L5.76109 10.8825C5.5639 11.7661 5.56541 12.6193 5.66286 13.3798L7.64664 13.1256Z" fill="#71717A"/>
<path d="M11.3182 7.71304C11.9323 7.576 12.5468 7.57243 13.1256 7.6466L13.3798 5.66282C12.6194 5.56538 11.7662 5.56387 10.8826 5.76105L11.3182 7.71304Z" fill="#71717A"/>
<path d="M14.9852 14.9852C15.2154 14.755 15.4095 14.5223 15.5728 14.2899L17.2093 15.4396C16.978 15.7688 16.7092 16.0897 16.3994 16.3995C16.0897 16.7092 15.7688 16.9781 15.4395 17.2094L14.2898 15.5729C14.5223 15.4095 14.755 15.2155 14.9852 14.9852Z" fill="#71717A"/>
<path d="M16.2869 12.6818C16.424 12.0678 16.4275 11.4532 16.3534 10.8744L18.3371 10.6202C18.4346 11.3807 18.4361 12.2339 18.2389 13.1175L16.2869 12.6818Z" fill="#71717A"/>
<path d="M10.8744 16.3534C11.4532 16.4276 12.0677 16.424 12.6818 16.287L13.1174 18.2389C12.2338 18.4361 11.3806 18.4346 10.6202 18.3372L10.8744 16.3534Z" fill="#71717A"/>
</svg>
