<svg width="24" height="24" viewBox="0 0 24 24" fill="none" xmlns="http://www.w3.org/2000/svg">
<path d="M20.2929 2.29291L17 5.5858V2.99998L15 2.99998V9.00001H21V7.00001H18.4142L21.7071 3.70712L20.2929 2.29291Z" fill="#71717A"/>
<path d="M5.5858 7.00001L2.29293 3.70712L3.70715 2.29291L7 5.58579V3.00001H9V9.00001H3V7.00001H5.5858Z" fill="#71717A"/>
<path d="M15 12C15 13.6569 13.6568 15 12 15C10.3431 15 8.99997 13.6569 8.99997 12C8.99997 10.3432 10.3431 9.00001 12 9.00001C13.6568 9.00001 15 10.3432 15 12Z" fill="#71717A"/>
<path d="M18.4142 17L21.7071 20.2929L20.2929 21.7071L17 18.4142V21H15L15 15L21 15V17H18.4142Z" fill="#71717A"/>
<path d="M3.70708 21.7071L6.99997 18.4142L6.99997 21.0001H8.99997L8.99997 15H2.99997L2.99997 17H5.58576L2.29286 20.2929L3.70708 21.7071Z" fill="#71717A"/>
</svg>
