<svg width="24" height="24" viewBox="0 0 24 24" fill="none" xmlns="http://www.w3.org/2000/svg">
<path d="M6.5 9.5C7.52516 9.5 8.4062 10.117 8.79198 11L11.5 11L11.5 6C11.5 4.89543 12.3954 4 13.5 4L16.2676 4C16.6134 3.4022 17.2597 3 18 3C19.1046 3 20 3.89543 20 5C20 6.10457 19.1046 7 18 7C17.2597 7 16.6134 6.5978 16.2676 6L13.5 6L13.5 11L16.2676 11C16.6134 10.4022 17.2597 10 18 10C19.1046 10 20 10.8954 20 12C20 13.1046 19.1046 14 18 14C17.2597 14 16.6134 13.5978 16.2676 13L13.5 13L13.5 18L16.2676 18C16.6134 17.4022 17.2597 17 18 17C19.1046 17 20 17.8954 20 19C20 20.1046 19.1046 21 18 21C17.2597 21 16.6134 20.5978 16.2676 20L13.5 20C12.3954 20 11.5 19.1046 11.5 18L11.5 13L8.79198 13C8.4062 13.883 7.52516 14.5 6.5 14.5C5.11929 14.5 4 13.3807 4 12C4 10.6193 5.11929 9.5 6.5 9.5Z" fill="#71717A"/>
</svg>
