<svg width="24" height="24" viewBox="0 0 24 24" fill="none" xmlns="http://www.w3.org/2000/svg">
<path d="M18.5 4.5C18.5 4.92667 18.3664 5.32213 18.1387 5.64684L20.1737 10.0074C21.1969 10.0955 22 10.9539 22 12C22 13.0461 21.1969 13.9045 20.1737 13.9926L18.1387 18.3532C18.3664 18.6779 18.5 19.0733 18.5 19.5C18.5 20.6046 17.6046 21.5 16.5 21.5C15.7597 21.5 15.1134 21.0978 14.7676 20.5H9.23244C8.88663 21.0978 8.24028 21.5 7.5 21.5C6.39543 21.5 5.5 20.6046 5.5 19.5C5.5 19.0733 5.63361 18.6778 5.86128 18.3531L3.82635 13.9926C2.80309 13.9046 2 13.0461 2 12C2 10.9539 2.80309 10.0954 3.82635 10.0074L5.86128 5.64686C5.63361 5.32215 5.5 4.92668 5.5 4.5C5.5 3.39543 6.39543 2.5 7.5 2.5C8.24028 2.5 8.88663 2.9022 9.23244 3.5H14.7676C15.1134 2.9022 15.7597 2.5 16.5 2.5C17.6046 2.5 18.5 3.39543 18.5 4.5ZM16.3263 17.5074L18.3613 13.1469C18.1336 12.8222 18 12.4267 18 12C18 11.5733 18.1336 11.1778 18.3613 10.8531L16.3263 6.49257C15.6594 6.43521 15.086 6.05056 14.7676 5.5H9.23244C8.91396 6.05055 8.34058 6.4352 7.67368 6.49256L5.63873 10.8532C5.86639 11.1779 6 11.5733 6 12C6 12.4267 5.86639 12.8221 5.63873 13.1468L7.67368 17.5074C8.34058 17.5648 8.91396 17.9495 9.23244 18.5H14.7676C15.086 17.9494 15.6594 17.5648 16.3263 17.5074Z" fill="#71717A"/>
</svg>
