<svg width="24" height="24" viewBox="0 0 24 24" fill="none" xmlns="http://www.w3.org/2000/svg">
<path d="M19 2.99999H14.82C14.25 1.43999 12.53 0.639994 11 1.19999C10.14 1.49999 9.5 2.15999 9.18 2.99999H5C4.46957 2.99999 3.96086 3.21071 3.58579 3.58578C3.21071 3.96085 3 4.46956 3 4.99999V19C3 19.5304 3.21071 20.0391 3.58579 20.4142C3.96086 20.7893 4.46957 21 5 21H19C19.5304 21 20.0391 20.7893 20.4142 20.4142C20.7893 20.0391 21 19.5304 21 19V4.99999C21 4.46956 20.7893 3.96085 20.4142 3.58578C20.0391 3.21071 19.5304 2.99999 19 2.99999ZM12 2.99999C12.2652 2.99999 12.5196 3.10535 12.7071 3.29289C12.8946 3.48042 13 3.73478 13 3.99999C13 4.26521 12.8946 4.51956 12.7071 4.7071C12.5196 4.89464 12.2652 4.99999 12 4.99999C11.7348 4.99999 11.4804 4.89464 11.2929 4.7071C11.1054 4.51956 11 4.26521 11 3.99999C11 3.73478 11.1054 3.48042 11.2929 3.29289C11.4804 3.10535 11.7348 2.99999 12 2.99999ZM7 6.99999H17V4.99999H19V19H5V4.99999H7V6.99999ZM17 11H7V8.99999H17V11ZM15 15H7V13H15V15Z" fill="#71717A"/>
</svg>
