<svg width="24" height="24" viewBox="0 0 24 24" fill="none" xmlns="http://www.w3.org/2000/svg">
<path d="M3 8V3H8V5L5 5L5 8H3Z" fill="#71717A"/>
<path d="M19 16H21V21H16V19H19V16Z" fill="#71717A"/>
<path d="M9.62453 16.0531L8.91025 16.7673L7.49603 15.3531L8.21032 14.6388L9.62453 16.0531Z" fill="#71717A"/>
<path d="M11.0531 14.6245L10.3388 15.3388L8.92461 13.9246L9.63889 13.2103L11.0531 14.6245Z" fill="#71717A"/>
<path d="M12.4817 13.1959L11.7674 13.9102L10.3532 12.496L11.0675 11.7817L12.4817 13.1959Z" fill="#71717A"/>
<path d="M13.9102 11.7673L13.196 12.4816L11.7817 11.0674L12.496 10.3531L13.9102 11.7673Z" fill="#71717A"/>
<path d="M15.3388 10.3388L14.6245 11.0531L13.2103 9.63884L13.9246 8.92456L15.3388 10.3388Z" fill="#71717A"/>
<path d="M16.7674 8.9102L16.0531 9.62449L14.6389 8.21027L15.3532 7.49599L16.7674 8.9102Z" fill="#71717A"/>
<path d="M19.7308 7.67654C19.7992 8.10066 19.8459 8.57932 19.8487 9.10163C19.8598 11.1854 19.1688 13.8933 16.5311 16.5311C13.8933 19.1689 11.1854 19.8598 9.10161 19.8487C8.57931 19.8459 8.10065 19.7992 7.67653 19.7308C7.24706 20.4886 6.43325 21 5.5 21C4.11929 21 3 19.8807 3 18.5C3 17.4886 3.60057 16.6175 4.46453 16.2239C4.42623 15.8989 4.4023 15.5477 4.40084 15.1742C4.39269 13.0879 5.0883 10.3763 7.73231 7.7323C10.3763 5.08829 13.0879 4.39267 15.1742 4.40083C15.5477 4.40229 15.8989 4.42622 16.2239 4.46451C16.6175 3.60056 17.4886 3 18.5 3C19.8807 3 21 4.11929 21 5.5C21 6.43326 20.4886 7.24707 19.7308 7.67654ZM9.11227 17.8488C10.7013 17.8572 12.8837 17.35 15.1169 15.1169C17.35 12.8838 17.8572 10.7013 17.8487 9.11229C17.8464 8.67549 17.8049 8.27821 17.7458 7.93176L17.4817 8.19592L16.0675 6.7817L16.2527 6.5965C16.2337 6.55771 16.2157 6.51836 16.1987 6.47848C15.8887 6.43275 15.5422 6.40228 15.1664 6.40081C13.5748 6.39459 11.3873 6.90578 9.14653 9.14651C6.9058 11.3872 6.39461 13.5748 6.40083 15.1664C6.4023 15.5422 6.43277 15.8887 6.47851 16.1988C6.51838 16.2157 6.55772 16.2337 6.5965 16.2527L6.78175 16.0674L8.19596 17.4816L7.93175 17.7458C8.2782 17.8049 8.67548 17.8464 9.11227 17.8488Z" fill="#71717A"/>
</svg>
