<svg width="24" height="24" viewBox="0 0 24 24" fill="none" xmlns="http://www.w3.org/2000/svg">
<path d="M7 5C7 5.17916 6.97644 5.35282 6.93226 5.51804L7.80783 6.39362C8.97641 5.5184 10.4277 5 12 5C15.866 5 19 8.13401 19 12C19 13.5448 18.4996 14.9727 17.652 16.1305L21.1644 19.2526L19.8356 20.7474L16.2515 17.5615C15.0729 18.4638 13.599 19 12 19C10.4277 19 8.97641 18.4816 7.80783 17.6064L6.93226 18.482C6.97644 18.6472 7 18.8208 7 19C7 20.1046 6.10457 21 5 21C3.89543 21 3 20.1046 3 19C3 17.8954 3.89543 17 5 17C5.17916 17 5.35282 17.0236 5.51804 17.0677L6.39362 16.1922C5.5184 15.0236 5 13.5723 5 12C5 10.4277 5.5184 8.97641 6.39362 7.80783L5.51804 6.93226C5.35282 6.97644 5.17916 7 5 7C3.89543 7 3 6.10457 3 5C3 3.89543 3.89543 3 5 3C6.10457 3 7 3.89543 7 5ZM7 12C7 13.0191 7.30488 13.967 7.8284 14.7574L9.29237 13.2934C9.10495 12.9018 9 12.4631 9 12C9 11.5369 9.10495 11.0982 9.29237 10.7066L7.8284 9.24261C7.30488 10.033 7 10.9809 7 12ZM10.7066 14.7076L9.24261 16.1716C10.033 16.6951 10.9809 17 12 17C14.7614 17 17 14.7614 17 12C17 9.23858 14.7614 7 12 7C10.9809 7 10.033 7.30488 9.24261 7.8284L10.7066 9.29237C11.0982 9.10495 11.5369 9 12 9C13.6569 9 15 10.3431 15 12C15 13.6569 13.6569 15 12 15C11.5369 15 11.0982 14.895 10.7066 14.7076Z" fill="#71717A"/>
</svg>
