<svg width="24" height="24" viewBox="0 0 24 24" fill="none" xmlns="http://www.w3.org/2000/svg">
<path d="M5 2H7V4H5C4.44772 4 4 4.44772 4 5V7H2V5C2 3.34315 3.34315 2 5 2Z" fill="#71717A"/>
<path d="M17 2V4H19C19.5523 4 20 4.44772 20 5V7H22V5C22 3.34315 20.6569 2 19 2H17Z" fill="#71717A"/>
<path d="M19 20H17V22H19C20.6569 22 22 20.6569 22 19V17H20V19C20 19.5523 19.5523 20 19 20Z" fill="#71717A"/>
<path d="M4 19V17H2V19C2 20.6569 3.34315 22 5 22H7V20H5C4.44772 20 4 19.5523 4 19Z" fill="#71717A"/>
<path d="M13 12C13 12.5523 12.5523 13 12 13C11.4477 13 11 12.5523 11 12C11 11.4477 11.4477 11 12 11C12.5523 11 13 11.4477 13 12Z" fill="#71717A"/>
<path d="M12 17C16.375 17 19 12 19 12C19 12 16.375 7 12 7C7.625 7 5 12 5 12C5 12 7.625 17 12 17ZM12 15C10.3431 15 9 13.6569 9 12C9 10.3431 10.3431 9 12 9C13.6569 9 15 10.3431 15 12C15 13.6569 13.6569 15 12 15Z" fill="#71717A"/>
</svg>
