<svg width="24" height="24" viewBox="0 0 24 24" fill="none" xmlns="http://www.w3.org/2000/svg">
<path d="M6.45088 6.37658C6.08644 6.76056 5.57118 7 5 7C3.89543 7 3 6.10457 3 5C3 3.89543 3.89543 3 5 3C5.90724 3 6.67339 3.60407 6.91818 4.43194L7.83754 4.65259L7.3708 6.59736L6.45088 6.37658Z" fill="#71717A"/>
<path d="M20 8C20 9.10457 19.1046 10 18 10C17.593 10 17.2144 9.87844 16.8986 9.66965L16.9547 9.73822L16.169 10.3811L14.9025 8.83316L15.3071 8.50208L14.6625 8.34736L15.1292 6.40259L16.1709 6.65259L15.7761 8.29769L16.1447 8.7482C16.0514 8.51708 16 8.26454 16 8C16 6.89543 16.8954 6 18 6C19.1046 6 20 6.89543 20 8Z" fill="#71717A"/>
<path d="M6 19C7.10457 19 8 18.1046 8 17C8 16.7354 7.94863 16.4828 7.85531 16.2517L8.16221 16.6268L7.90451 18.2374L8.94618 18.4041L9.26216 16.4292L8.85619 16.3642L9.09753 16.1668L7.83105 14.6189L7.04533 15.2617L7.10153 15.3304C6.78564 15.1216 6.40702 15 6 15C4.89543 15 4 15.8954 4 17C4 18.1046 4.89543 19 6 19Z" fill="#71717A"/>
<path d="M21 19C21 20.1046 20.1046 21 19 21C18.1469 21 17.4185 20.4658 17.1311 19.7137L16.2378 19.5707L16.5538 17.5959L17.4476 17.7389C17.8144 17.288 18.3735 17 19 17C20.1046 17 21 17.8954 21 19Z" fill="#71717A"/>
<path d="M8.41246 6.84736L9.45413 7.09736L9.92088 5.15259L8.87921 4.90259L8.41246 6.84736Z" fill="#71717A"/>
<path d="M10.4958 7.34736L11.5375 7.59736L12.0042 5.65259L10.9625 5.40259L10.4958 7.34736Z" fill="#71717A"/>
<path d="M12.5791 7.84736L13.6208 8.09736L14.0875 6.15259L13.0459 5.90259L12.5791 7.84736Z" fill="#71717A"/>
<path d="M14.1168 9.47602L13.331 10.1189L14.5975 11.6668L15.3832 11.0239L14.1168 9.47602Z" fill="#71717A"/>
<path d="M12.5453 10.7617L11.7596 11.4046L13.0261 12.9525L13.8118 12.3096L12.5453 10.7617Z" fill="#71717A"/>
<path d="M10.9739 12.0474L10.1882 12.6903L11.4547 14.2382L12.2404 13.5954L10.9739 12.0474Z" fill="#71717A"/>
<path d="M9.40248 13.3332L8.61676 13.976L9.88324 15.5239L10.669 14.8811L9.40248 13.3332Z" fill="#71717A"/>
<path d="M9.98784 18.5707L11.0295 18.7374L11.3455 16.7625L10.3038 16.5959L9.98784 18.5707Z" fill="#71717A"/>
<path d="M12.0712 18.9041L13.1128 19.0707L13.4288 17.0959L12.3872 16.9292L12.0712 18.9041Z" fill="#71717A"/>
<path d="M14.1545 19.2374L15.1962 19.4041L15.5122 17.4292L14.4705 17.2625L14.1545 19.2374Z" fill="#71717A"/>
</svg>
