<svg width="24" height="24" viewBox="0 0 24 24" fill="none" xmlns="http://www.w3.org/2000/svg">
<path d="M4 2C2.89543 2 2 2.89543 2 4V10C2 11.1046 2.89543 12 4 12L4 13.1667H6V12H10C11.1046 12 12 11.1046 12 10V4C12 2.89543 11.1046 2 10 2H4ZM4 10L4 6H10V10H4Z" fill="#71717A"/>
<path d="M4 16.6667V14.3333H6V16.6667H4Z" fill="#71717A"/>
<path d="M4 17.8333H6V18H6.16667V20H4V17.8333Z" fill="#71717A"/>
<path d="M9.66667 20H7.33333V18H9.66667V20Z" fill="#71717A"/>
<path d="M12 20H10.8333V18H12V14C12 12.8954 12.8954 12 14 12H20C21.1046 12 22 12.8954 22 14V20C22 21.1046 21.1046 22 20 22H14C12.8954 22 12 21.1046 12 20ZM14 16V20H20V16H14Z" fill="#71717A"/>
</svg>
