<svg width="24" height="24" viewBox="0 0 24 24" fill="none" xmlns="http://www.w3.org/2000/svg">
<path d="M9.77637 16.5557H8.75098C8.74707 16.7158 8.71582 16.8477 8.65723 16.9512C8.59863 17.0527 8.51562 17.1289 8.4082 17.1797C8.30078 17.2285 8.16895 17.2529 8.0127 17.2529C7.87207 17.2529 7.75293 17.2295 7.65527 17.1826C7.55957 17.1338 7.48145 17.0586 7.4209 16.957C7.36035 16.8555 7.31641 16.7246 7.28906 16.5645C7.26172 16.4043 7.24805 16.2109 7.24805 15.9844V15.7471C7.24805 15.5205 7.2627 15.3271 7.29199 15.167C7.32324 15.0049 7.37012 14.873 7.43262 14.7715C7.49512 14.6699 7.57324 14.5957 7.66699 14.5488C7.76074 14.502 7.87109 14.4785 7.99805 14.4785C8.17969 14.4785 8.3252 14.5059 8.43457 14.5605C8.54395 14.6152 8.62402 14.6973 8.6748 14.8066C8.72559 14.9141 8.75293 15.0479 8.75684 15.208H9.78223C9.75684 14.9131 9.67383 14.6504 9.5332 14.4199C9.39258 14.1875 9.19434 14.0049 8.93848 13.8721C8.68262 13.7393 8.36914 13.6729 7.99805 13.6729C7.72852 13.6729 7.4834 13.7207 7.2627 13.8164C7.04199 13.9121 6.85254 14.0508 6.69434 14.2324C6.53809 14.4121 6.41699 14.6309 6.33105 14.8887C6.24707 15.1445 6.20508 15.4326 6.20508 15.7529V15.9844C6.20508 16.3047 6.24512 16.5928 6.3252 16.8486C6.40723 17.1045 6.52539 17.3223 6.67969 17.502C6.83594 17.6816 7.02539 17.8193 7.24805 17.915C7.47266 18.0107 7.72754 18.0586 8.0127 18.0586C8.36426 18.0586 8.66895 17.9961 8.92676 17.8711C9.18652 17.7441 9.38965 17.5674 9.53613 17.3408C9.68262 17.1143 9.7627 16.8525 9.77637 16.5557Z" fill="#71717A"/>
<path d="M12.4307 16.6875C12.4502 16.7402 12.46 16.7998 12.46 16.8662C12.46 16.9424 12.4414 17.0127 12.4043 17.0771C12.3672 17.1396 12.3086 17.1904 12.2285 17.2295C12.1484 17.2666 12.043 17.2852 11.9121 17.2852C11.791 17.2852 11.6836 17.2744 11.5898 17.2529C11.4961 17.2295 11.417 17.1924 11.3525 17.1416C11.2881 17.0889 11.2393 17.0195 11.2061 16.9336C11.1729 16.8477 11.1562 16.7422 11.1562 16.6172H10.125C10.125 16.8691 10.1758 17.0869 10.2773 17.2705C10.3809 17.4521 10.5186 17.6016 10.6904 17.7188C10.8623 17.834 11.0537 17.9199 11.2646 17.9766C11.4775 18.0312 11.6934 18.0586 11.9121 18.0586C12.1504 18.0586 12.3662 18.0322 12.5596 17.9795C12.7529 17.9268 12.9189 17.8496 13.0576 17.748C13.1963 17.6445 13.3027 17.5186 13.377 17.3701C13.4512 17.2217 13.4883 17.0518 13.4883 16.8604C13.4883 16.6807 13.4561 16.5195 13.3916 16.377C13.3291 16.2344 13.2363 16.1074 13.1133 15.9961C12.9922 15.8828 12.8428 15.7822 12.665 15.6943C12.4893 15.6045 12.2881 15.5234 12.0615 15.4512C11.9404 15.4121 11.8311 15.3721 11.7334 15.3311C11.6377 15.29 11.5557 15.2471 11.4873 15.2021C11.4209 15.1572 11.3691 15.1094 11.332 15.0586C11.2969 15.0059 11.2793 14.9473 11.2793 14.8828C11.2793 14.8047 11.3018 14.7334 11.3467 14.6689C11.3916 14.6025 11.458 14.5498 11.5459 14.5107C11.6338 14.4717 11.7422 14.4521 11.8711 14.4521C12.0039 14.4521 12.1143 14.4756 12.2021 14.5225C12.29 14.5693 12.3555 14.6338 12.3984 14.7158C12.4434 14.7979 12.4658 14.8926 12.4658 15H13.4883C13.4883 14.7305 13.4199 14.4971 13.2832 14.2998C13.1484 14.1006 12.9609 13.9473 12.7207 13.8398C12.4824 13.7305 12.207 13.6758 11.8945 13.6758C11.6582 13.6758 11.4404 13.7041 11.2412 13.7607C11.042 13.8154 10.8682 13.8955 10.7197 14.001C10.5732 14.1045 10.459 14.2305 10.377 14.3789C10.2949 14.5254 10.2539 14.6904 10.2539 14.874C10.2539 15.0654 10.2939 15.2334 10.374 15.3779C10.4541 15.5205 10.5625 15.6455 10.6992 15.7529C10.8359 15.8584 10.9912 15.9512 11.165 16.0312C11.3389 16.1094 11.5195 16.1797 11.707 16.2422C11.8672 16.2949 11.9961 16.3457 12.0938 16.3945C12.1934 16.4414 12.2695 16.4883 12.3223 16.5352C12.375 16.582 12.4111 16.6328 12.4307 16.6875Z" fill="#71717A"/>
<path d="M15.1113 18L13.6816 13.7344H14.8271L15.6738 16.8445L16.5205 13.7344H17.6719L16.2334 18H15.1113Z" fill="#71717A"/>
<path d="M21 19V9L15 3H5C3.89543 3 3 3.89543 3 5V19C3 20.1046 3.89543 21 5 21H19C20.1046 21 21 20.1046 21 19ZM19 19H5L5 5L12 5V12H19V19ZM19 9.82843V10H14V5H14.1716L19 9.82843Z" fill="#71717A"/>
</svg>
