<svg width="24" height="24" viewBox="0 0 24 24" fill="none" xmlns="http://www.w3.org/2000/svg">
<path d="M21 4C21 5.10457 20.1046 6 19 6C18.5927 6 18.2138 5.87825 17.8978 5.66915L13.2361 8.00002L17.8978 10.3309C18.2138 10.1218 18.5927 10 19 10C20.1046 10 21 10.8954 21 12C21 13.1046 20.1046 14 19 14C18.5927 14 18.2138 13.8782 17.8978 13.6691L13.2361 16L17.8978 18.3309C18.2138 18.1218 18.5927 18 19 18C20.1046 18 21 18.8954 21 20C21 21.1046 20.1046 22 19 22C17.9357 22 17.0655 21.1686 17.0035 20.1198L12.1022 17.6691C11.7862 17.8782 11.4073 18 11 18C9.89841 18 9.00483 17.1094 9.00002 16.0089L5.00801 13.7278C4.71204 13.9008 4.3676 14 4 14C2.89543 14 2 13.1046 2 12C2 10.8954 2.89543 10 4 10C4.36761 10 4.71206 10.0992 5.00804 10.2722L9.00002 7.99111C9.00481 6.89063 9.89839 6 11 6C11.4073 6 11.7862 6.12176 12.1022 6.33087L17.0035 3.88022C17.0655 2.83142 17.9356 2 19 2C20.1046 2 21 2.89543 21 4ZM9.99199 9.72778L6.01556 12L9.99196 14.2722C10.2879 14.0992 10.6324 14 11 14C11.4073 14 11.7862 14.1218 12.1022 14.3309L16.7639 12L12.1022 9.66915C11.7862 9.87825 11.4073 10 11 10C10.6324 10 10.288 9.90083 9.99199 9.72778Z" fill="#71717A"/>
</svg>
