<svg width="24" height="24" viewBox="0 0 24 24" fill="none" xmlns="http://www.w3.org/2000/svg">
<path d="M3 5C3 3.89543 3.89543 3 5 3H15L21 9V19C21 20.1046 20.1046 21 19 21H5C3.89543 21 3 20.1046 3 19V5ZM14 5V10H19L14 5ZM8.49316 16.6875C8.5127 16.7402 8.52246 16.7998 8.52246 16.8662C8.52246 16.9424 8.50391 17.0127 8.4668 17.0771C8.42969 17.1396 8.37109 17.1904 8.29102 17.2295C8.21094 17.2666 8.10547 17.2852 7.97461 17.2852C7.85352 17.2852 7.74609 17.2744 7.65234 17.2529C7.55859 17.2295 7.47949 17.1924 7.41504 17.1416C7.35059 17.0889 7.30176 17.0195 7.26855 16.9336C7.23535 16.8477 7.21875 16.7422 7.21875 16.6172H6.1875C6.1875 16.8691 6.23828 17.0869 6.33984 17.2705C6.44336 17.4521 6.58105 17.6016 6.75293 17.7188C6.9248 17.834 7.11621 17.9199 7.32715 17.9766C7.54004 18.0312 7.75586 18.0586 7.97461 18.0586C8.21289 18.0586 8.42871 18.0322 8.62207 17.9795C8.81543 17.9268 8.98145 17.8496 9.12012 17.748C9.25879 17.6445 9.36523 17.5186 9.43945 17.3701C9.51367 17.2217 9.55078 17.0518 9.55078 16.8604C9.55078 16.6807 9.51855 16.5195 9.4541 16.377C9.3916 16.2344 9.29883 16.1074 9.17578 15.9961C9.05469 15.8828 8.90527 15.7822 8.72754 15.6943C8.55176 15.6045 8.35059 15.5234 8.12402 15.4512C8.00293 15.4121 7.89355 15.3721 7.7959 15.3311C7.7002 15.29 7.61816 15.2471 7.5498 15.2021C7.4834 15.1572 7.43164 15.1094 7.39453 15.0586C7.35938 15.0059 7.3418 14.9473 7.3418 14.8828C7.3418 14.8047 7.36426 14.7334 7.40918 14.6689C7.4541 14.6025 7.52051 14.5498 7.6084 14.5107C7.69629 14.4717 7.80469 14.4521 7.93359 14.4521C8.06641 14.4521 8.17676 14.4756 8.26465 14.5225C8.35254 14.5693 8.41797 14.6338 8.46094 14.7158C8.50586 14.7979 8.52832 14.8926 8.52832 15H9.55078C9.55078 14.7305 9.48242 14.4971 9.3457 14.2998C9.21094 14.1006 9.02344 13.9473 8.7832 13.8398C8.54492 13.7305 8.26953 13.6758 7.95703 13.6758C7.7207 13.6758 7.50293 13.7041 7.30371 13.7607C7.10449 13.8154 6.93066 13.8955 6.78223 14.001C6.63574 14.1045 6.52148 14.2305 6.43945 14.3789C6.35742 14.5254 6.31641 14.6904 6.31641 14.874C6.31641 15.0654 6.35645 15.2334 6.43652 15.3779C6.5166 15.5205 6.625 15.6455 6.76172 15.7529C6.89844 15.8584 7.05371 15.9512 7.22754 16.0312C7.40137 16.1094 7.58203 16.1797 7.76953 16.2422C7.92969 16.2949 8.05859 16.3457 8.15625 16.3945C8.25586 16.4414 8.33203 16.4883 8.38477 16.5352C8.4375 16.582 8.47363 16.6328 8.49316 16.6875ZM11.1738 18H12.2959L13.7344 13.7344H12.583L11.7363 16.8445L10.8896 13.7344H9.74414L11.1738 18ZM17.4961 17.4727V15.7207H15.7529V16.4268H16.4678V17.0889C16.4404 17.1143 16.4004 17.1416 16.3477 17.1709C16.2969 17.1982 16.2324 17.2217 16.1543 17.2412C16.0762 17.2588 15.9824 17.2676 15.873 17.2676C15.7168 17.2676 15.5811 17.2412 15.4658 17.1885C15.3525 17.1338 15.2588 17.0537 15.1846 16.9482C15.1123 16.8408 15.0576 16.707 15.0205 16.5469C14.9854 16.3867 14.9678 16.2002 14.9678 15.9873V15.7441C14.9678 15.5293 14.9863 15.3418 15.0234 15.1816C15.0625 15.0215 15.1172 14.8887 15.1875 14.7832C15.2578 14.6758 15.3428 14.5957 15.4424 14.543C15.5439 14.4902 15.6562 14.4639 15.7793 14.4639C15.9375 14.4639 16.0664 14.4902 16.166 14.543C16.2656 14.5938 16.3418 14.6689 16.3945 14.7686C16.4492 14.8662 16.4863 14.9854 16.5059 15.126H17.4932C17.4658 14.8408 17.3887 14.5898 17.2617 14.373C17.1348 14.1543 16.9482 13.9834 16.7021 13.8604C16.4561 13.7354 16.1367 13.6729 15.7441 13.6729C15.4785 13.6729 15.2344 13.7188 15.0117 13.8105C14.791 13.9023 14.5986 14.0371 14.4346 14.2148C14.2725 14.3906 14.1465 14.6074 14.0566 14.8652C13.9668 15.123 13.9219 15.418 13.9219 15.75V15.9873C13.9219 16.3193 13.9658 16.6143 14.0537 16.8721C14.1436 17.1279 14.2705 17.3447 14.4346 17.5225C14.6006 17.6982 14.7988 17.832 15.0293 17.9238C15.2598 18.0137 15.5166 18.0586 15.7998 18.0586C16.1064 18.0586 16.373 18.0264 16.5996 17.9619C16.8262 17.8975 17.0137 17.8203 17.1621 17.7305C17.3125 17.6387 17.4238 17.5527 17.4961 17.4727Z" fill="#71717A"/>
</svg>
