<svg width="24" height="24" viewBox="0 0 24 24" fill="none" xmlns="http://www.w3.org/2000/svg">
<path d="M12 2C17.078 2 21.272 5.785 21.915 10.687C20.376 9.48706 18.4514 8.89104 16.5036 9.01115C14.5558 9.13126 12.7191 9.9592 11.3391 11.3391C9.9592 12.7191 9.13126 14.5558 9.01115 16.5036C8.89104 18.4514 9.48706 20.376 10.687 21.915C5.785 21.272 2 17.078 2 12C2 6.477 6.477 2 12 2ZM12 3.833C9.683 3.833 7.59 4.799 6.104 6.349C6.281 6.472 6.435 6.645 6.541 6.883C6.745 7.34 6.745 7.811 6.745 8.228C6.745 8.556 6.745 8.868 6.85 9.093C6.994 9.401 7.616 9.533 8.165 9.647L8.185 9.652C8.375 9.692 8.57 9.732 8.748 9.782C9.254 9.922 9.646 10.377 9.959 10.742C10.089 10.893 10.282 11.116 10.379 11.172C10.429 11.136 10.59 10.961 10.669 10.674C10.731 10.454 10.713 10.26 10.624 10.154C10.064 9.494 10.095 8.224 10.268 7.755C10.54 7.016 11.39 7.071 12.012 7.111H12.018C12.248 7.126 12.464 7.141 12.626 7.12C13.097 7.06 13.321 6.504 13.461 6.156C13.506 6.045 13.542 5.955 13.575 5.91C13.867 5.51 14.761 4.907 15.315 4.535C14.2715 4.07099 13.142 3.83181 12 3.833ZM23 17C23 18.5913 22.3679 20.1174 21.2426 21.2426C20.1174 22.3679 18.5913 23 17 23C15.4087 23 13.8826 22.3679 12.7574 21.2426C11.6321 20.1174 11 18.5913 11 17C11 15.4087 11.6321 13.8826 12.7574 12.7574C13.8826 11.6321 15.4087 11 17 11C18.5913 11 20.1174 11.6321 21.2426 12.7574C22.3679 13.8826 23 15.4087 23 17ZM16 18H20V16H18V14H16V18Z" fill="#71717A"/>
</svg>
