<svg width="24" height="24" viewBox="0 0 24 24" fill="none" xmlns="http://www.w3.org/2000/svg">
<path d="M5 2H7V4H5C4.44772 4 4 4.44772 4 5V7H2V5C2 3.34315 3.34315 2 5 2Z" fill="#71717A"/>
<path d="M17 2V4H19C19.5523 4 20 4.44772 20 5V7H22V5C22 3.34315 20.6569 2 19 2H17Z" fill="#71717A"/>
<path d="M19 20H17V22H19C20.6569 22 22 20.6569 22 19V17H20V19C20 19.5523 19.5523 20 19 20Z" fill="#71717A"/>
<path d="M4 19V17H2V19C2 20.6569 3.34315 22 5 22H7V20H5C4.44772 20 4 19.5523 4 19Z" fill="#71717A"/>
<path d="M12.0589 13.3553L10.7626 14.6517L9.34835 13.2375L10.6447 11.9411L12.0589 13.3553Z" fill="#71717A"/>
<path d="M14.6517 10.7626L13.3553 12.059L11.9411 10.6447L13.2374 9.34838L14.6517 10.7626Z" fill="#71717A"/>
<path d="M8.90383 18.0962C8.94285 18.0572 8.98003 18.017 9.01538 17.9758C9.3795 18.0926 9.78696 18.1996 10.2262 18.2772C12.0074 18.5915 14.3769 18.422 16.3994 16.3995C18.422 14.3769 18.5914 12.0075 18.2771 10.2263C18.1894 9.72958 18.0641 9.27353 17.9295 8.87483C17.9534 8.85311 17.9769 8.83071 18 8.80761C18.7753 8.03231 18.7753 6.7753 18 6.00001C17.2247 5.22471 15.9677 5.22471 15.1924 6.00001C15.1693 6.02311 15.1469 6.04664 15.1252 6.07057C14.7265 5.93599 14.2705 5.81061 13.7738 5.72297C11.9926 5.40864 9.62314 5.57809 7.60059 7.60065C5.57803 9.6232 5.40858 11.9927 5.72291 13.7738C5.80042 14.2131 5.90743 14.6205 6.02423 14.9846C5.98302 15.02 5.94285 15.0572 5.90381 15.0962C5.07538 15.9246 5.07538 17.2678 5.90381 18.0962C6.73224 18.9246 8.0754 18.9246 8.90383 18.0962ZM14.8737 8.39196C14.9592 8.54062 15.0654 8.68058 15.1924 8.80761C15.3194 8.93464 15.4594 9.04086 15.6081 9.12626L15.948 9.46623L15.9999 9.41431C16.1197 9.75389 16.2322 10.1471 16.3075 10.5738C16.547 11.9311 16.4088 13.5617 14.9852 14.9853C13.5616 16.4089 11.9311 16.5471 10.5738 16.3076C10.159 16.2344 9.77592 16.1261 9.44297 16.0101L9.43415 15.9801L9.4662 15.948L9.40276 15.8846C9.30052 15.5967 9.1342 15.3266 8.90383 15.0962C8.67345 14.8658 8.40326 14.6995 8.11541 14.5972L8.05199 14.5338L8.01994 14.5659L7.98999 14.5571C7.874 14.2241 7.76568 13.8411 7.69248 13.4263C7.45296 12.069 7.5912 10.4385 9.0148 9.01486C10.4384 7.59126 12.0689 7.45301 13.4262 7.69253C13.853 7.76785 14.2461 7.88034 14.5857 8.00011L14.5338 8.05201L14.8737 8.39196Z" fill="#71717A"/>
</svg>
