<svg width="24" height="24" viewBox="0 0 24 24" fill="none" xmlns="http://www.w3.org/2000/svg">
<path d="M9.29328 16.4092H10.0986L9.69465 14.8755L9.29328 16.4092Z" fill="#71717A"/>
<path d="M3 5C3 3.89543 3.89543 3 5 3H15L21 9V19C21 20.1046 20.1046 21 19 21H5C3.89543 21 3 20.1046 3 19V5ZM14 5V10H19L14 5ZM6.71484 15.6562L6.06445 13.7344H5.13281L6.28125 16.4502V18H7.14551V16.4502L8.29395 13.7344H7.35938L6.71484 15.6562ZM10.084 13.7344H9.30469L7.97168 18H8.87695L9.10697 17.1211H10.2861L10.5176 18H11.4287L10.084 13.7344ZM12.8936 13.7344H11.8359V18H12.665V16.5469L12.6153 15.2911L13.4414 18H14.083L14.9179 15.0637L14.8623 16.5469V18H15.6885V13.7344H14.6309L13.7637 16.6523L12.8936 13.7344ZM18.7559 18V17.291H17.2471V13.7344H16.3887V18H18.7559Z" fill="#71717A"/>
</svg>
