<svg width="24" height="24" viewBox="0 0 24 24" fill="none" xmlns="http://www.w3.org/2000/svg">
<path d="M12 12C14.21 12 16 10.21 16 8C16 5.79 14.21 4 12 4C9.79 4 8 5.79 8 8C8 10.21 9.79 12 12 12Z" fill="#71717A"/>
<path d="M12 14C9.33 14 4 15.34 4 18V20H13.207C13.0722 19.5232 13 19.02 13 18.5C13 16.8471 13.7291 15.3645 14.8833 14.3563C13.827 14.1189 12.7954 14 12 14Z" fill="#71717A"/>
<path d="M20 14C22.2091 14 24 14.8954 24 16V20C24 21.1046 22.2091 22 20 22C17.7909 22 16 21.1046 16 20V16C16 14.8954 17.7909 14 20 14ZM22.5 16C22.5 15.4477 21.1046 15 20 15C18.8954 15 17.5 15.4477 17.5 16C17.5 16.5523 18.8954 17 20 17C21.1046 17 22.5 16.5523 22.5 16Z" fill="#71717A"/>
</svg>
