<svg width="24" height="24" viewBox="0 0 24 24" fill="none" xmlns="http://www.w3.org/2000/svg">
<path d="M11 5.73244C10.4022 5.38663 10 4.74028 10 4C10 2.89543 10.8954 2 12 2C13.1046 2 14 2.89543 14 4C14 4.74028 13.5978 5.38662 13 5.73243V9.17071C13.8524 9.47199 14.528 10.1476 14.8293 11H16.382L17.8309 8.10221C17.6218 7.78619 17.5 7.40731 17.5 7C17.5 5.89543 18.3954 5 19.5 5C20.6046 5 21.5 5.89543 21.5 7C21.5 8.06435 20.6686 8.93451 19.6198 8.99647L18.118 12L19.6198 15.0035C20.6686 15.0655 21.5 15.9357 21.5 17C21.5 18.1046 20.6046 19 19.5 19C18.3954 19 17.5 18.1046 17.5 17C17.5 16.5927 17.6218 16.2138 17.8309 15.8978L16.382 13H14.8293C14.528 13.8524 13.8524 14.528 13 14.8293V18.2676C13.5978 18.6134 14 19.2597 14 20C14 21.1046 13.1046 22 12 22C10.8954 22 10 21.1046 10 20C10 19.2597 10.4022 18.6134 11 18.2676V14.8293C10.1476 14.528 9.47199 13.8524 9.17071 13H7.61804L6.16914 15.8978C6.37824 16.2138 6.5 16.5927 6.5 17C6.5 18.1046 5.60457 19 4.5 19C3.39543 19 2.5 18.1046 2.5 17C2.5 15.9357 3.33141 15.0655 4.3802 15.0035L5.88197 12L4.3802 8.99647C3.33141 8.93451 2.5 8.06435 2.5 7C2.5 5.89543 3.39543 5 4.5 5C5.60457 5 6.5 5.89543 6.5 7C6.5 7.40731 6.37824 7.78618 6.16914 8.1022L7.61804 11H9.17071C9.47199 10.1476 10.1476 9.47199 11 9.1707V5.73244Z" fill="#71717A"/>
</svg>
