<svg width="24" height="24" viewBox="0 0 24 24" fill="none" xmlns="http://www.w3.org/2000/svg">
<path d="M12 2C10.0222 2 8.08879 2.58649 6.44429 3.6853C4.7998 4.78412 3.51808 6.3459 2.7612 8.17317C2.00433 10.0004 1.80629 12.0111 2.19214 13.9509C2.578 15.8907 3.5304 17.6725 4.92893 19.0711C6.32745 20.4696 8.10928 21.422 10.0491 21.8079C11.9889 22.1937 13.9996 21.9957 15.8268 21.2388C17.6541 20.4819 19.2159 19.2002 20.3147 17.5557C21.4135 15.9112 22 13.9778 22 12C22 10.6868 21.7413 9.38642 21.2388 8.17317C20.7362 6.95991 19.9996 5.85752 19.0711 4.92893C18.1425 4.00035 17.0401 3.26375 15.8268 2.7612C14.6136 2.25866 13.3132 2 12 2ZM18 11H13L14.81 9.19C14.4443 8.81476 14.0074 8.51624 13.5249 8.31191C13.0424 8.10757 12.524 8.00154 12 8C11.2513 7.99757 10.517 8.20531 9.88052 8.59958C9.24407 8.99386 8.73104 9.55884 8.3998 10.2303C8.06856 10.9017 7.93241 11.6526 8.00683 12.3976C8.08125 13.1426 8.36325 13.8517 8.82077 14.4443C9.27828 15.037 9.89293 15.4893 10.5948 15.7499C11.2967 16.0105 12.0576 16.0688 12.791 15.9183C13.5244 15.7679 14.2009 15.4146 14.7434 14.8987C15.286 14.3827 15.6728 13.7249 15.86 13H17.91C17.7193 14.1282 17.21 15.1783 16.4421 16.0266C15.6742 16.8749 14.6798 17.4859 13.5761 17.7876C12.4724 18.0893 11.3055 18.0692 10.2129 17.7296C9.12024 17.3899 8.14751 16.7449 7.40938 15.8707C6.67125 14.9964 6.19849 13.9293 6.04684 12.7952C5.8952 11.6611 6.071 10.5073 6.55351 9.46979C7.03602 8.43231 7.80512 7.55442 8.77012 6.93964C9.73513 6.32487 10.8558 5.99884 12 6C12.7865 6.00099 13.5648 6.15894 14.2894 6.46459C15.0141 6.77024 15.6704 7.21745 16.22 7.78L18 6V11Z" fill="#18181B"/>
</svg>
