<svg width="24" height="24" viewBox="0 0 24 24" fill="none" xmlns="http://www.w3.org/2000/svg">
<path d="M12 16.3333C12.4641 16.3333 12.9092 16.1577 13.2374 15.8452C13.5656 15.5326 13.75 15.1087 13.75 14.6667C13.75 13.7417 12.9625 13 12 13C11.5359 13 11.0908 13.1756 10.7626 13.4882C10.4344 13.8007 10.25 14.2246 10.25 14.6667C10.25 15.1087 10.4344 15.5326 10.7626 15.8452C11.0908 16.1577 11.5359 16.3333 12 16.3333ZM17.25 8.83333C17.7141 8.83333 18.1592 9.00893 18.4874 9.32149C18.8156 9.63405 19 10.058 19 10.5V18.8333C19 19.2754 18.8156 19.6993 18.4874 20.0118C18.1592 20.3244 17.7141 20.5 17.25 20.5H6.75C6.28587 20.5 5.84075 20.3244 5.51256 20.0118C5.18437 19.6993 5 19.2754 5 18.8333V10.5C5 9.575 5.7875 8.83333 6.75 8.83333H7.625V7.16667C7.625 6.0616 8.08594 5.00179 8.90641 4.22039C9.72688 3.43899 10.8397 3 12 3C12.5745 3 13.1434 3.10777 13.6742 3.31717C14.205 3.52656 14.6873 3.83348 15.0936 4.22039C15.4998 4.6073 15.8221 5.06663 16.042 5.57215C16.2618 6.07768 16.375 6.61949 16.375 7.16667V8.83333H17.25ZM12 4.66667C11.3038 4.66667 10.6361 4.93006 10.1438 5.3989C9.65156 5.86774 9.375 6.50363 9.375 7.16667V8.83333H14.625V7.16667C14.625 6.50363 14.3484 5.86774 13.8562 5.3989C13.3639 4.93006 12.6962 4.66667 12 4.66667Z" fill="black"/>
</svg>
