<svg width="20" height="20" viewBox="0 0 20 20" fill="none" xmlns="http://www.w3.org/2000/svg">
<path d="M10 14.3333C10.4641 14.3333 10.9092 14.1577 11.2374 13.8452C11.5656 13.5326 11.75 13.1087 11.75 12.6667C11.75 11.7417 10.9625 11 10 11C9.53587 11 9.09075 11.1756 8.76256 11.4882C8.43437 11.8007 8.25 12.2246 8.25 12.6667C8.25 13.1087 8.43437 13.5326 8.76256 13.8452C9.09075 14.1577 9.53587 14.3333 10 14.3333ZM15.25 6.83333C15.7141 6.83333 16.1592 7.00893 16.4874 7.32149C16.8156 7.63405 17 8.05797 17 8.5V16.8333C17 17.2754 16.8156 17.6993 16.4874 18.0118C16.1592 18.3244 15.7141 18.5 15.25 18.5H4.75C4.28587 18.5 3.84075 18.3244 3.51256 18.0118C3.18437 17.6993 3 17.2754 3 16.8333V8.5C3 7.575 3.7875 6.83333 4.75 6.83333H5.625V5.16667C5.625 4.0616 6.08594 3.00179 6.90641 2.22039C7.72688 1.43899 8.83968 1 10 1C10.5745 1 11.1434 1.10777 11.6742 1.31717C12.205 1.52656 12.6873 1.83348 13.0936 2.22039C13.4998 2.6073 13.8221 3.06663 14.042 3.57215C14.2618 4.07768 14.375 4.61949 14.375 5.16667V6.83333H15.25ZM10 2.66667C9.30381 2.66667 8.63613 2.93006 8.14384 3.3989C7.65156 3.86774 7.375 4.50363 7.375 5.16667V6.83333H12.625V5.16667C12.625 4.50363 12.3484 3.86774 11.8562 3.3989C11.3639 2.93006 10.6962 2.66667 10 2.66667Z" fill="black"/>
</svg>
