<svg width="14" height="18" viewBox="0 0 14 18" fill="none" xmlns="http://www.w3.org/2000/svg">
<path d="M7 13.3333C7.46413 13.3333 7.90925 13.1577 8.23744 12.8452C8.56563 12.5326 8.75 12.1087 8.75 11.6667C8.75 10.7417 7.9625 10 7 10C6.53587 10 6.09075 10.1756 5.76256 10.4882C5.43437 10.8007 5.25 11.2246 5.25 11.6667C5.25 12.1087 5.43437 12.5326 5.76256 12.8452C6.09075 13.1577 6.53587 13.3333 7 13.3333ZM12.25 5.83333C12.7141 5.83333 13.1592 6.00893 13.4874 6.32149C13.8156 6.63405 14 7.05797 14 7.5V15.8333C14 16.2754 13.8156 16.6993 13.4874 17.0118C13.1592 17.3244 12.7141 17.5 12.25 17.5H1.75C1.28587 17.5 0.840752 17.3244 0.512563 17.0118C0.184374 16.6993 0 16.2754 0 15.8333V7.5C0 6.575 0.7875 5.83333 1.75 5.83333H2.625V4.16667C2.625 3.0616 3.08594 2.00179 3.90641 1.22039C4.72688 0.438987 5.83968 0 7 0C7.57453 0 8.14344 0.107774 8.67424 0.317169C9.20504 0.526563 9.68734 0.833478 10.0936 1.22039C10.4998 1.6073 10.8221 2.06663 11.042 2.57215C11.2618 3.07768 11.375 3.61949 11.375 4.16667V5.83333H12.25ZM7 1.66667C6.30381 1.66667 5.63613 1.93006 5.14384 2.3989C4.65156 2.86774 4.375 3.50363 4.375 4.16667V5.83333H9.625V4.16667C9.625 3.50363 9.34844 2.86774 8.85616 2.3989C8.36387 1.93006 7.69619 1.66667 7 1.66667Z" fill="black"/>
</svg>
