<svg width="24" height="24" viewBox="0 0 24 24" fill="none" xmlns="http://www.w3.org/2000/svg">
<path d="M16.9301 10.405L18.7079 9.41735L17.7366 7.66904L15.9588 8.65669L16.9301 10.405Z" fill="#18181B"/>
<path d="M5.29213 9.41735L7.06991 10.405L8.0412 8.65669L6.26342 7.66904L5.29213 9.41735Z" fill="#18181B"/>
<path d="M14.2634 11.8865L16.0412 10.8988L15.0699 9.15052L13.2921 10.1382L14.2634 11.8865Z" fill="#18181B"/>
<path d="M7.9588 10.8988L9.73658 11.8865L10.7079 10.1382L8.93009 9.15052L7.9588 10.8988Z" fill="#18181B"/>
<path d="M10.6255 12.3803L11 12.5884V13H13V12.5884L13.3745 12.3803L12.4032 10.632L12 10.856L11.5968 10.632L10.6255 12.3803Z" fill="#18181B"/>
<path d="M11 14V16H13V14H11Z" fill="#18181B"/>
<path d="M11 17V19H13V17H11Z" fill="#18181B"/>
<path d="M13.9971 3.10947C13.999 3.07323 14 3.03673 14 3C14 1.89543 13.1046 1 12 1C10.8954 1 10 1.89543 10 3C10 3.03673 10.001 3.07323 10.0029 3.10947L5.46015 5.63325C5.0952 5.24353 4.57604 5 4 5C2.89543 5 2 5.89543 2 7C2 7.74028 2.4022 8.38663 3 8.73244V15.2676C2.4022 15.6134 2 16.2597 2 17C2 18.1046 2.89543 19 4 19C4.57604 19 5.0952 18.7565 5.46015 18.3667L10.0029 20.8905C10.001 20.9268 10 20.9633 10 21C10 22.1046 10.8954 23 12 23C13.1046 23 14 22.1046 14 21C14 20.9633 13.999 20.9268 13.9971 20.8905L18.5399 18.3667C18.9048 18.7565 19.424 19 20 19C21.1046 19 22 18.1046 22 17C22 16.2597 21.5978 15.6134 21 15.2676V8.73244C21.5978 8.38663 22 7.74028 22 7C22 5.89543 21.1046 5 20 5C19.424 5 18.9048 5.24353 18.5399 5.63325L13.9971 3.10947ZM5.87818 16.3111C5.71601 15.8691 5.4023 15.5003 5 15.2676V8.73244C5.4023 8.49972 5.71601 8.1309 5.87818 7.68893L11.1013 4.7872C11.3715 4.92333 11.6768 5 12 5C12.3232 5 12.6285 4.92333 12.8987 4.7872L18.1218 7.68893C18.284 8.1309 18.5977 8.49972 19 8.73244V15.2676C18.5977 15.5003 18.284 15.8691 18.1218 16.3111L12.8987 19.2128C12.6285 19.0767 12.3232 19 12 19C11.6768 19 11.3715 19.0767 11.1013 19.2128L5.87818 16.3111Z" fill="#18181B"/>
</svg>
