<svg width="24" height="24" viewBox="0 0 24 24" fill="none" xmlns="http://www.w3.org/2000/svg">
<path d="M6 7.82929C7.16519 7.41746 8 6.30622 8 5C8 3.34315 6.65685 2 5 2C3.34315 2 2 3.34315 2 5C2 6.30622 2.83481 7.41746 4 7.82929V16.1707C2.83481 16.5825 2 17.6938 2 19C2 20.6569 3.34315 22 5 22C6.30622 22 7.41746 21.1652 7.82929 20H16.1707C16.5825 21.1652 17.6938 22 19 22C20.6569 22 22 20.6569 22 19C22 17.3431 20.6569 16 19 16C17.6938 16 16.5825 16.8348 16.1707 18H7.82929C7.52801 17.1476 6.85241 16.472 6 16.1707V7.82929ZM6 5C6 5.55228 5.55228 6 5 6C4.44772 6 4 5.55228 4 5C4 4.44772 4.44772 4 5 4C5.55228 4 6 4.44772 6 5ZM19 20C18.4477 20 18 19.5523 18 19C18 18.4477 18.4477 18 19 18C19.5523 18 20 18.4477 20 19C20 19.5523 19.5523 20 19 20Z" fill="#18181B"/>
<path d="M14.5 5V8.91421L16.2929 10.7071L17.7071 9.29289L16.5 8.08579V5H14.5Z" fill="#18181B"/>
<path d="M15.5 15C19.0899 15 22 12.0899 22 8.5C22 4.91015 19.0899 2 15.5 2C11.9101 2 9 4.91015 9 8.5C9 12.0899 11.9101 15 15.5 15ZM15.5 13C13.0147 13 11 10.9853 11 8.5C11 6.01472 13.0147 4 15.5 4C17.9853 4 20 6.01472 20 8.5C20 10.9853 17.9853 13 15.5 13Z" fill="#18181B"/>
</svg>
