<svg width="24" height="24" viewBox="0 0 24 24" fill="none" xmlns="http://www.w3.org/2000/svg">
<path d="M21 6C21 7.65685 19.6569 9 18 9C17.5369 9 17.0982 8.89505 16.7066 8.70763L8.70763 16.7066C8.89505 17.0982 9 17.5369 9 18C9 19.6569 7.65685 21 6 21C4.34315 21 3 19.6569 3 18C3 16.3431 4.34315 15 6 15C6.46315 15 6.90178 15.105 7.29342 15.2924L15.2924 7.29342C15.105 6.90178 15 6.46315 15 6C15 4.34315 16.3431 3 18 3C19.6569 3 21 4.34315 21 6ZM19 6C19 5.44772 18.5523 5 18 5C17.4477 5 17 5.44772 17 6C17 6.55228 17.4477 7 18 7C18.5523 7 19 6.55228 19 6Z" fill="#18181B"/>
</svg>
